<?xml version="1.0" encoding="UTF-8"?><svg id="Layer_3" xmlns="http://www.w3.org/2000/svg" viewBox="0 0 60 60"><defs><style>.cls-1{fill:#6a0560;}.cls-2{opacity:.8;}.cls-2,.cls-3{fill:#1a1f3d;}.cls-4{fill:#6e0ff5;}.cls-5{fill:#f55364;}</style></defs><path class="cls-2" d="m42.58,39.93c-.18.33-.39.62-.63.9.17-.33.39-.63.63-.9Z"/><path class="cls-2" d="m42.58,39.93c-.18.33-.39.62-.63.9.17-.33.39-.63.63-.9Z"/><path class="cls-5" d="m38.35,26.24c0-2.39,1.94-4.32,4.32-4.32h.71v-2.71c0-3.29-2.67-5.96-5.96-5.96H6.46c-3.29,0-5.96,2.67-5.96,5.96v17.74c0,3.29,2.66,5.96,5.96,5.96h2.27c0-.07,0-.14,0-.21,0-3.4,2.76-6.15,6.15-6.15s6.15,2.76,6.15,6.15c0,.07,0,.14,0,.21h16.4c.7,0,1.36-.12,1.98-.34l.11-1.04c-.72-.77-1.17-1.81-1.17-2.95v-12.35Z"/><path class="cls-4" d="m59.31,37.41l-3.29-11.15c-.76-2.58-3.13-4.34-5.81-4.34h-6.83v15.02c.68-.26,1.41-.39,2.17-.39,3.4,0,6.15,2.76,6.15,6.15,0,.07,0,.14,0,.21h3.63c.86,0,1.65-.25,2.32-.68,1.58-1.01,2.19-3.02,1.66-4.82Z"/><path class="cls-5" d="m42.67,21.92c-2.38,0-4.32,1.93-4.32,4.32v12.35c0,1.14.44,2.18,1.17,2.95.4-2.12,1.89-3.85,3.87-4.6v-15.02h-.71Z"/><path class="cls-1" d="m42.67,21.92c-2.38,0-4.32,1.93-4.32,4.32v12.35c0,1.14.44,2.18,1.17,2.95.4-2.12,1.89-3.85,3.87-4.6v-15.02h-.71Z"/><path class="cls-5" d="m18.94,42.69c0,.07,0,.14,0,.21-.11,2.15-1.88,3.85-4.06,3.85s-3.95-1.7-4.06-3.85c0-.07,0-.14,0-.21,0-2.24,1.82-4.07,4.06-4.07s4.06,1.82,4.06,4.07Z"/><path class="cls-3" d="m39.41,42.57c0-.35.04-.7.11-1.04"/><path class="cls-3" d="m42.58,39.93c-.18.33-.39.62-.63.9.17-.33.39-.63.63-.9Z"/><path class="cls-4" d="m49.62,42.69c0,.07,0,.14,0,.21-.11,2.15-1.89,3.85-4.06,3.85s-4.04-1.79-4.06-4.01v-.05c0-.67.16-1.3.45-1.86.24-.28.46-.57.63-.9,0,0,0,0,0,0,.74-.8,1.8-1.29,2.97-1.29,2.24,0,4.06,1.82,4.06,4.07Z"/><path class="cls-2" d="m42.58,39.93c-.18.33-.39.62-.63.9.17-.33.39-.63.63-.9Z"/></svg>