<?xml version="1.0" encoding="UTF-8"?><svg id="Layer_3" xmlns="http://www.w3.org/2000/svg" viewBox="0 0 60 60"><defs><style>.cls-1{fill:#fff;}.cls-2{opacity:.52;}.cls-3{opacity:.8;}.cls-4{fill:#6e0ff5;}</style></defs><g class="cls-2"><g class="cls-3"><path class="cls-4" d="m59.5,46.72v1.68c0,2.62-2.13,4.75-4.75,4.75h-14.66c-2.63,0-4.75-2.13-4.75-4.75v-1.68c0-2.87,1.28-5.45,3.3-7.19.97-.83,2.38-.79,3.36.02,1.48,1.2,3.36,1.91,5.41,1.91s3.93-.72,5.41-1.91c.99-.8,2.4-.84,3.37-.01,2.02,1.74,3.3,4.31,3.3,7.19Z"/></g><g class="cls-3"><path class="cls-4" d="m54.48,31.42c0,1.99-.83,3.79-2.16,5.07-1.26,1.23-3,1.98-4.9,1.98s-3.63-.75-4.89-1.98c-1.34-1.28-2.17-3.08-2.17-5.07,0-3.89,3.17-7.06,7.06-7.06s7.06,3.16,7.06,7.06Z"/></g></g><g class="cls-3"><path class="cls-4" d="m50.28,44.96v2.14c0,3.34-2.71,6.05-6.05,6.05h-18.68c-3.34,0-6.05-2.71-6.05-6.05v-2.14c0-3.66,1.63-6.95,4.21-9.16,1.23-1.06,3.03-1,4.29.02,1.88,1.53,4.28,2.44,6.89,2.44s5.01-.91,6.89-2.43c1.26-1.02,3.06-1.07,4.29-.02,2.58,2.21,4.21,5.49,4.21,9.15Z"/></g><g class="cls-3"><path class="cls-4" d="m43.88,25.47c0,2.54-1.06,4.83-2.75,6.46-1.61,1.56-3.82,2.52-6.24,2.52s-4.62-.96-6.23-2.52c-1.7-1.63-2.76-3.93-2.76-6.46,0-4.96,4.04-8.99,8.99-8.99s8.99,4.03,8.99,8.99Z"/></g><g class="cls-3"><path class="cls-1" d="m39.35,42.81v2.7c0,4.22-3.42,7.63-7.63,7.63H8.13c-4.22,0-7.63-3.42-7.63-7.63v-2.7c0-4.62,2.06-8.77,5.31-11.56,1.55-1.33,3.82-1.26,5.41.02,2.38,1.93,5.41,3.08,8.7,3.08s6.32-1.15,8.7-3.07c1.59-1.29,3.86-1.35,5.41-.02,3.25,2.79,5.31,6.93,5.31,11.56Z"/></g><g class="cls-3"><path class="cls-1" d="m31.27,18.2c0,3.2-1.34,6.1-3.47,8.16-2.03,1.97-4.82,3.19-7.87,3.19s-5.83-1.21-7.87-3.19c-2.15-2.06-3.48-4.96-3.48-8.16,0-6.26,5.1-11.35,11.35-11.35s11.35,5.09,11.35,11.35Z"/></g></svg>