<?xml version="1.0" encoding="UTF-8"?><svg xmlns="http://www.w3.org/2000/svg" viewBox="0 0 60 60"><defs><style>.cls-1,.cls-2,.cls-3{opacity:.8;}.cls-1,.cls-3{fill:#6e0ff5;}.cls-4{stroke-linejoin:round;stroke-width:1.97px;}.cls-4,.cls-5{fill:none;stroke:#fff;stroke-linecap:round;}.cls-6{isolation:isolate;}.cls-2{fill:#fff;}.cls-7{opacity:.82;}.cls-5{stroke-miterlimit:10;stroke-width:2.98px;}.cls-3{mix-blend-mode:multiply;}</style></defs><g class="cls-6"><g id="Layer_3"><path class="cls-2" d="m40.63,52.26H11.77c-2.97,0-5.35-2.48-5.22-5.45l1.23-29.01c.12-2.8,2.42-5,5.22-5h26.4c2.8,0,5.1,2.21,5.22,5l1.23,29.01c.13,2.97-2.25,5.45-5.22,5.45Z"/><path class="cls-5" d="m18.83,17.45v-6.54c0-4.14,3.36-7.5,7.5-7.5h0c4.14,0,7.5,3.36,7.5,7.5v6.54"/><g class="cls-7"><circle class="cls-1" cx="41.86" cy="47.81" r="11.6"/><circle class="cls-3" cx="41.86" cy="47.81" r="7.73"/></g><polyline class="cls-4" points="38.16 49.03 41.54 52.41 45.66 44.7"/></g></g></svg>