<?xml version="1.0" encoding="UTF-8"?><svg id="Layer_3" xmlns="http://www.w3.org/2000/svg" viewBox="0 0 60 60"><defs><style>.cls-1{opacity:.58;}.cls-1,.cls-2{fill:#6e0ff5;}.cls-2{opacity:.77;}.cls-3{fill:#fff;opacity:.8;}.cls-4{fill:none;}</style></defs><path class="cls-4" d="m46.16,41.17l-1.57,2.63c-.13.23-.28.44-.43.65.19.02.37.06.57.06,2.97,0,5.39-2.42,5.39-5.39,0-2.61-1.87-4.79-4.34-5.27.48.66.85,1.4,1.06,2.22.48,1.75.23,3.56-.68,5.12Z"/><path class="cls-4" d="m23.81,21.52c-4.68,0-8.49,3.8-8.49,8.47s3.81,8.49,8.49,8.49c2.55,0,4.82-1.16,6.38-2.95-.38-1.13-.32-2.41.33-3.53l1.01-1.68c.19-.34.44-.64.71-.91-.3-4.4-3.95-7.9-8.43-7.9Z"/><path class="cls-2" d="m31.53,30.32l-1.01,1.68c-.64,1.11-.71,2.39-.33,3.53,1.29-1.49,2.11-3.41,2.11-5.53,0-.2-.05-.38-.06-.58-.27.27-.51.57-.71.91Z"/><path class="cls-2" d="m59.35,42.96c-.3-1.11-1.01-2.04-2-2.62-.65-.37-.91-1.2-.52-1.97.13-.22.3-.39.53-.52,2.03-1.19,2.74-3.81,1.57-5.84l-.93-1.63c-.77-1.33-2.2-2.15-3.74-2.15-.75,0-1.49.2-2.15.57-.22.14-.46.2-.72.2-.5,0-.98-.27-1.25-.71-.11-.18-.18-.41-.18-.61.03-1.15-.38-2.24-1.17-3.07-.52-.56-1.18-.95-1.89-1.16-.37,1.84-1.46,3.54-3.2,4.56-.35.2-.63.48-.83.82-.62,1.22-.2,2.53.82,3.11.84.49,1.54,1.15,2.09,1.91,2.47.49,4.34,2.66,4.34,5.27,0,2.97-2.42,5.39-5.39,5.39-.19,0-.38-.04-.57-.06-1.26,1.68-3.26,2.7-5.42,2.7-1.17,0-2.34-.3-3.36-.89-.34-.19-.72-.3-1.11-.3-1.25,0-2.24,1.02-2.23,2.26,0,.13-.03.25-.04.37.81.91,1.96,1.46,3.21,1.46.68,0,1.35-.16,1.96-.46l.16-.09c.22-.13.46-.2.71-.2.12,0,.25.02.37.05.37.1.68.34.88.69.12.19.18.42.19.65,0,2.37,1.92,4.3,4.3,4.3h1.88c2.36,0,4.29-1.92,4.3-4.3,0-.79.62-1.44,1.41-1.44.25,0,.49.07.7.19.65.38,1.39.57,2.13.57,1.54,0,2.96-.81,3.72-2.12l1-1.67c.58-.99.73-2.14.43-3.25Z"/><path class="cls-3" d="m39.33,39.11c0,2.78,2.12,5.04,4.82,5.33.15-.21.3-.42.43-.65l1.57-2.63c.91-1.56,1.16-3.37.68-5.12-.22-.81-.59-1.55-1.06-2.22-.34-.07-.69-.11-1.05-.11-2.97,0-5.39,2.41-5.39,5.38Z"/><path class="cls-3" d="m30.5,46.23c-.58-1-.73-2.16-.43-3.26.3-1.11,1.01-2.03,2-2.6.22-.13.4-.31.53-.53.19-.34.25-.73.14-1.09-.1-.37-.34-.69-.67-.88-.93-.54-1.57-1.39-1.89-2.34-1.56,1.79-3.83,2.95-6.38,2.95-4.68,0-8.49-3.81-8.49-8.49s3.81-8.47,8.49-8.47,8.12,3.49,8.43,7.9c.79-.77,1.86-1.23,3-1.23.75,0,1.48.2,2.14.57.22.13.44.19.68.19.78,0,1.42-.64,1.43-1.42,0-2.36,1.92-4.28,4.29-4.28h2.05c.37.01.73.09,1.07.19.31-1.54.11-3.19-.73-4.65l-1.47-2.56c-1.21-2.09-3.46-3.38-5.88-3.38-1.18,0-2.35.31-3.38.89-.34.21-.73.31-1.13.31-.79,0-1.55-.43-1.96-1.12-.18-.29-.28-.65-.29-.96.05-1.81-.6-3.53-1.85-4.84-1.23-1.32-2.9-2.08-4.66-2.13h-3.23c-3.72,0-6.75,3.02-6.75,6.74-.01,1.23-1.02,2.24-2.25,2.24-.38,0-.73-.1-1.07-.3-1.03-.59-2.19-.91-3.37-.91-2.41,0-4.65,1.28-5.85,3.36l-1.6,2.64c-1.86,3.22-.75,7.37,2.46,9.24.53.3.91.79,1.06,1.38.16.58.08,1.19-.23,1.72-.2.34-.49.63-.83.83-1.56.91-2.68,2.35-3.16,4.1-.46,1.74-.23,3.56.68,5.13l1.47,2.53c1.19,2.15,3.47,3.48,5.93,3.48,1.07,0,2.13-.25,3.08-.73l.25-.14c.34-.2.73-.31,1.12-.31.19,0,.39.03.58.08.58.16,1.07.53,1.38,1.09.19.3.29.67.3,1.02,0,3.73,3.03,6.76,6.76,6.76h2.97c3.6,0,6.52-2.83,6.74-6.39-.21-.23-.41-.47-.56-.75l-.93-1.6Z"/><path class="cls-3" d="m34.27,45.95c.39,0,.77.11,1.11.3,1.02.59,2.19.89,3.36.89,2.16,0,4.17-1.02,5.42-2.7-2.7-.29-4.82-2.56-4.82-5.33,0-2.97,2.42-5.38,5.39-5.38.36,0,.71.04,1.05.11-.55-.76-1.25-1.42-2.09-1.91-1.02-.58-1.43-1.89-.82-3.11.2-.34.48-.62.83-.82,1.74-1.02,2.84-2.71,3.2-4.56-.35-.1-.71-.18-1.07-.19h-2.05c-2.36,0-4.29,1.92-4.29,4.28,0,.78-.65,1.42-1.43,1.42-.24,0-.46-.06-.68-.19-.65-.37-1.39-.57-2.14-.57-1.14,0-2.22.45-3,1.23.01.19.06.38.06.58,0,2.12-.81,4.04-2.11,5.53.32.95.96,1.8,1.89,2.34.34.19.57.5.67.88.1.37.05.76-.14,1.09-.13.22-.31.4-.53.53-.99.57-1.7,1.49-2,2.6-.3,1.1-.14,2.26.43,3.26l.93,1.6c.16.28.36.52.56.75,0-.13.04-.24.04-.37-.01-1.24.98-2.26,2.23-2.26Z"/><path class="cls-1" d="m34.27,45.95c.39,0,.77.11,1.11.3,1.02.59,2.19.89,3.36.89,2.16,0,4.17-1.02,5.42-2.7-2.7-.29-4.82-2.56-4.82-5.33,0-2.97,2.42-5.38,5.39-5.38.36,0,.71.04,1.05.11-.55-.76-1.25-1.42-2.09-1.91-1.02-.58-1.43-1.89-.82-3.11.2-.34.48-.62.83-.82,1.74-1.02,2.84-2.71,3.2-4.56-.35-.1-.71-.18-1.07-.19h-2.05c-2.36,0-4.29,1.92-4.29,4.28,0,.78-.65,1.42-1.43,1.42-.24,0-.46-.06-.68-.19-.65-.37-1.39-.57-2.14-.57-1.14,0-2.22.45-3,1.23.01.19.06.38.06.58,0,2.12-.81,4.04-2.11,5.53.32.95.96,1.8,1.89,2.34.34.19.57.5.67.88.1.37.05.76-.14,1.09-.13.22-.31.4-.53.53-.99.57-1.7,1.49-2,2.6-.3,1.1-.14,2.26.43,3.26l.93,1.6c.16.28.36.52.56.75,0-.13.04-.24.04-.37-.01-1.24.98-2.26,2.23-2.26Z"/></svg>