<?xml version="1.0" encoding="UTF-8"?><svg id="Layer_3" xmlns="http://www.w3.org/2000/svg" viewBox="0 0 60 60"><defs><style>.cls-1{fill:#6e0ff5;}.cls-1,.cls-2{opacity:.8;}.cls-2{fill:#fff;}.cls-3{fill:#2e194e;}</style></defs><path class="cls-2" d="m42.58,39.35c-.18.33-.39.62-.63.9.17-.33.39-.63.63-.9Z"/><path class="cls-2" d="m39.41,41.99c-.62.22-1.28.34-1.98.34h-16.4c0-.07,0-.14,0-.21,0-3.4-2.76-6.15-6.15-6.15s-6.15,2.76-6.15,6.15c0,.07,0,.14,0,.21h-2.27c-3.29,0-5.96-2.67-5.96-5.96v-17.74c0-3.29,2.66-5.96,5.96-5.96h30.97c3.29,0,5.96,2.67,5.96,5.96v17.73c-1.98.75-3.47,2.48-3.87,4.6"/><path class="cls-2" d="m42.58,39.35c-.18.33-.39.62-.63.9.17-.33.39-.63.63-.9Z"/><path class="cls-2" d="m57.66,41.65c-.67.43-1.46.68-2.32.68h-3.63c0-.07,0-.14,0-.21,0-3.4-2.76-6.15-6.15-6.15-.76,0-1.5.14-2.17.39-1.98.75-3.47,2.48-3.87,4.6-.72-.77-1.17-1.81-1.17-2.95v-12.35c0-2.39,1.94-4.32,4.32-4.32h7.54c2.68,0,5.05,1.77,5.81,4.34l3.29,11.15c.53,1.8-.08,3.82-1.66,4.82Z"/><path class="cls-1" d="m18.94,42.11c0,.07,0,.14,0,.21-.11,2.15-1.88,3.85-4.06,3.85s-3.95-1.7-4.06-3.85c0-.07,0-.14,0-.21,0-2.24,1.82-4.07,4.06-4.07s4.06,1.82,4.06,4.07Z"/><path class="cls-3" d="m42.58,39.35c-.18.33-.39.62-.63.9.17-.33.39-.63.63-.9Z"/><path class="cls-1" d="m49.62,42.11c0,.07,0,.14,0,.21-.11,2.15-1.89,3.85-4.06,3.85s-4.04-1.79-4.06-4.01v-.05c0-.67.16-1.3.45-1.86.24-.28.46-.57.63-.9,0,0,0,0,0,0,.74-.8,1.8-1.29,2.97-1.29,2.24,0,4.06,1.82,4.06,4.07Z"/><path class="cls-1" d="m42.58,39.35c-.18.33-.39.62-.63.9.17-.33.39-.63.63-.9Z"/></svg>