<?xml version="1.0" encoding="UTF-8"?><svg xmlns="http://www.w3.org/2000/svg" viewBox="0 0 60 38.4"><defs><style>.cls-1{fill:#ff7ba7;mix-blend-mode:multiply;}.cls-1,.cls-2,.cls-3,.cls-4,.cls-5{opacity:.8;}.cls-2{fill:#ff95b9;}.cls-6{isolation:isolate;}.cls-3{fill:#ff5786;}.cls-4{fill:#6e0581;}.cls-5{fill:#6e09b2;}.cls-7{fill:#6e0ff5;}</style></defs><g class="cls-6"><g id="Layer_3"><path class="cls-7" d="m39.52,7.11H6.08c-1.37,0-2.63.45-3.65,1.22l20.77,12.6c1.9,1.15,4.25,1.15,6.15,0l10.43-6.32c-.53-1.26-.82-2.63-.82-4.08,0-1.2.2-2.34.57-3.41Z"/><path class="cls-7" d="m41.33,17.19l-10.41,6.32c-1.43.87-3.04,1.31-4.64,1.31s-3.21-.44-4.64-1.31L.53,10.7c-.34.76-.53,1.6-.53,2.48v19.15c0,3.35,2.72,6.07,6.08,6.07h40.47c3.36,0,6.07-2.72,6.07-6.07v-11.76c-.99.31-2.05.48-3.14.48-3.28,0-6.21-1.5-8.14-3.86Z"/><path class="cls-2" d="m42.83,12.75l-3.05,1.85c.39.94.92,1.81,1.56,2.58l3.05-1.85c-.69-.73-1.23-1.61-1.55-2.58Z"/><path class="cls-2" d="m60,10.52c0-5.81-4.71-10.52-10.52-10.52-4.62,0-8.54,2.97-9.95,7.11h3.83c1.2-2.15,3.49-3.6,6.13-3.6,3.87,0,7.02,3.14,7.02,7.02,0,2.74-1.58,5.11-3.87,6.27v3.78c4.28-1.34,7.38-5.33,7.38-10.05Z"/><path class="cls-7" d="m42.46,10.52c0-1.24.32-2.4.89-3.41h-3.83c-.37,1.07-.57,2.22-.57,3.41,0,1.45.29,2.83.82,4.08l3.05-1.85c-.24-.7-.37-1.45-.37-2.23Z"/><path class="cls-5" d="m42.46,10.52c0-1.24.32-2.4.89-3.41h-3.83c-.37,1.07-.57,2.22-.57,3.41,0,1.45.29,2.83.82,4.08l3.05-1.85c-.24-.7-.37-1.45-.37-2.23Z"/><path class="cls-7" d="m49.48,17.54c-2.01,0-3.82-.85-5.09-2.2l-3.05,1.85c1.93,2.36,4.86,3.86,8.14,3.86,1.09,0,2.15-.17,3.14-.48v-3.78c-.95.47-2.01.75-3.14.75Z"/><path class="cls-5" d="m49.48,17.54c-2.01,0-3.82-.85-5.09-2.2l-3.05,1.85c1.93,2.36,4.86,3.86,8.14,3.86,1.09,0,2.15-.17,3.14-.48v-3.78c-.95.47-2.01.75-3.14.75Z"/><path class="cls-1" d="m50.16,8.31l-7.33,4.45c.33.98.86,1.85,1.55,2.58l7.69-4.67c.35.77.54,1.62.54,2.51v3.61c2.3-1.15,3.87-3.52,3.87-6.27,0-3.87-3.14-7.02-7.02-7.02-2.63,0-4.93,1.45-6.13,3.6h3.19c1.36,0,2.61.44,3.62,1.2Z"/><path class="cls-3" d="m50.16,8.31l-7.33,4.45c.33.98.86,1.85,1.55,2.58l7.69-4.67c.35.77.54,1.62.54,2.51v3.61c2.3-1.15,3.87-3.52,3.87-6.27,0-3.87-3.14-7.02-7.02-7.02-2.63,0-4.93,1.45-6.13,3.6h3.19c1.36,0,2.61.44,3.62,1.2Z"/><path class="cls-7" d="m42.83,12.75l7.33-4.45c-1.01-.75-2.26-1.2-3.62-1.2h-3.19c-.56,1.01-.89,2.17-.89,3.41,0,.78.13,1.53.37,2.23Z"/><path class="cls-1" d="m42.83,12.75l7.33-4.45c-1.01-.75-2.26-1.2-3.62-1.2h-3.19c-.56,1.01-.89,2.17-.89,3.41,0,.78.13,1.53.37,2.23Z"/><path class="cls-4" d="m42.83,12.75l7.33-4.45c-1.01-.75-2.26-1.2-3.62-1.2h-3.19c-.56,1.01-.89,2.17-.89,3.41,0,.78.13,1.53.37,2.23Z"/><path class="cls-7" d="m52.07,10.67l-7.69,4.67c1.28,1.35,3.09,2.2,5.09,2.2,1.13,0,2.19-.27,3.14-.75v-3.61c0-.9-.19-1.74-.54-2.51Z"/><path class="cls-1" d="m52.07,10.67l-7.69,4.67c1.28,1.35,3.09,2.2,5.09,2.2,1.13,0,2.19-.27,3.14-.75v-3.61c0-.9-.19-1.74-.54-2.51Z"/><path class="cls-4" d="m52.07,10.67l-7.69,4.67c1.28,1.35,3.09,2.2,5.09,2.2,1.13,0,2.19-.27,3.14-.75v-3.61c0-.9-.19-1.74-.54-2.51Z"/></g></g></svg>