<?xml version="1.0" encoding="UTF-8"?><svg id="Layer_3" xmlns="http://www.w3.org/2000/svg" viewBox="0 0 46.28 46.28"><defs><style>.cls-1{fill:#1a1f3d;}</style></defs><path class="cls-1" d="m43.48,17.76c-1.54,0-2.8-1.26-2.8-2.8v-7.55c0-1-.81-1.81-1.81-1.81h-7.55c-1.54,0-2.8-1.26-2.8-2.8s1.26-2.8,2.8-2.8h7.55c4.09,0,7.41,3.32,7.41,7.41v7.55c0,1.54-1.26,2.8-2.8,2.8Z"/><path class="cls-1" d="m2.8,17.76c-1.54,0-2.8-1.26-2.8-2.8v-7.55C0,3.32,3.32,0,7.41,0h7.54c1.54,0,2.8,1.26,2.8,2.8s-1.26,2.8-2.8,2.8h-7.54c-1,0-1.81.81-1.81,1.81v7.55c0,1.54-1.26,2.8-2.8,2.8Z"/><path class="cls-1" d="m7.41,46.28c-4.09,0-7.41-3.32-7.41-7.41v-7.55c0-1.54,1.26-2.8,2.8-2.8s2.8,1.26,2.8,2.8v7.55c0,1,.81,1.81,1.81,1.81h7.54c1.54,0,2.8,1.26,2.8,2.8s-1.26,2.8-2.8,2.8h-7.54Z"/><path class="cls-1" d="m31.32,46.28c-1.54,0-2.8-1.26-2.8-2.8s1.26-2.8,2.8-2.8h7.55c1,0,1.81-.81,1.81-1.81v-7.55c0-1.54,1.26-2.8,2.8-2.8s2.8,1.26,2.8,2.8v7.55c0,4.09-3.32,7.41-7.41,7.41h-7.55Z"/></svg>