<?xml version="1.0" encoding="UTF-8"?><svg id="Layer_3" xmlns="http://www.w3.org/2000/svg" viewBox="0 0 47.28 33.65"><defs><style>.cls-1{fill:#1a1f3d;}</style></defs><path class="cls-1" d="m44.44,5.68H2.84c-1.57,0-2.84-1.27-2.84-2.84S1.27,0,2.84,0h41.61c1.57,0,2.84,1.27,2.84,2.84s-1.27,2.84-2.84,2.84Z"/><path class="cls-1" d="m37.34,19.66H9.94c-1.57,0-2.84-1.27-2.84-2.84s1.27-2.84,2.84-2.84h27.4c1.57,0,2.84,1.27,2.84,2.84s-1.27,2.84-2.84,2.84Z"/><path class="cls-1" d="m30.24,33.65h-13.2c-1.57,0-2.84-1.27-2.84-2.84s1.27-2.84,2.84-2.84h13.2c1.57,0,2.84,1.27,2.84,2.84s-1.27,2.84-2.84,2.84Z"/></svg>