<?xml version="1.0" encoding="UTF-8"?><svg id="Layer_3" xmlns="http://www.w3.org/2000/svg" viewBox="0 0 55.63 60"><defs><style>.cls-1{fill:#1a1f3d;}</style></defs><path class="cls-1" d="m27.4,54.79C12.29,54.79,0,42.5,0,27.4S12.29,0,27.4,0s27.4,12.29,27.4,27.4-12.29,27.4-27.4,27.4Zm0-48.53C15.74,6.26,6.26,15.74,6.26,27.4s9.48,21.13,21.13,21.13,21.13-9.48,21.13-21.13S39.05,6.26,27.4,6.26Z"/><path class="cls-1" d="m52.5,60c-.8,0-1.6-.31-2.21-.92l-7.89-7.89c-1.22-1.22-1.22-3.21,0-4.43s3.21-1.22,4.43,0l7.89,7.89c1.22,1.22,1.22,3.21,0,4.43-.61.61-1.41.92-2.21.92Z"/></svg>