<?xml version="1.0" encoding="UTF-8"?><svg id="Layer_3" xmlns="http://www.w3.org/2000/svg" viewBox="0 0 60 49.25"><defs><style>.cls-1{fill:#1a1f3d;}</style></defs><path class="cls-1" d="m57.43,5.14H22.36c-1.42,0-2.57-1.15-2.57-2.57s1.15-2.57,2.57-2.57h35.08c1.42,0,2.57,1.15,2.57,2.57s-1.15,2.57-2.57,2.57Z"/><path class="cls-1" d="m10.77,46.58c-1.42,0-2.57-1.15-2.57-2.57V2.57c0-1.42,1.15-2.57,2.57-2.57s2.57,1.15,2.57,2.57v41.44c0,1.42-1.15,2.57-2.57,2.57Z"/><path class="cls-1" d="m45.87,17.79h-23.51c-1.42,0-2.57-1.15-2.57-2.57s1.15-2.57,2.57-2.57h23.51c1.42,0,2.57,1.15,2.57,2.57s-1.15,2.57-2.57,2.57Z"/><path class="cls-1" d="m34.3,30.44h-11.95c-1.42,0-2.57-1.15-2.57-2.57s1.15-2.57,2.57-2.57h11.95c1.42,0,2.57,1.15,2.57,2.57s-1.15,2.57-2.57,2.57Z"/><path class="cls-1" d="m10.77,49.25c-.68,0-1.33-.27-1.82-.75L.75,40.3c-1-1-1-2.63,0-3.63s2.63-1,3.63,0l6.38,6.38,6.38-6.38c1-1,2.63-1,3.63,0,1,1,1,2.63,0,3.63l-8.2,8.2c-.48.48-1.13.75-1.82.75Z"/></svg>