<?xml version="1.0" encoding="UTF-8"?><svg id="Layer_3" xmlns="http://www.w3.org/2000/svg" viewBox="0 0 60 52.83"><defs><style>.cls-1{fill:#1a1f3d;}</style></defs><path class="cls-1" d="m51.93,52.83h-29.2c-4.45,0-8.07-3.62-8.07-8.07v-7.43c0-1.53,1.24-2.76,2.76-2.76s2.76,1.24,2.76,2.76v7.43c0,1.41,1.14,2.55,2.55,2.55h29.2c1.4,0,2.55-1.14,2.55-2.55v-24.8c0-1.42-.55-2.76-1.56-3.77l-9.1-9.1c-1.01-1.01-2.34-1.56-3.77-1.56h-17.32c-1.41,0-2.55,1.14-2.55,2.55v6.08c0,1.53-1.24,2.76-2.76,2.76s-2.76-1.24-2.76-2.76v-6.08C14.65,3.62,18.27,0,22.72,0h17.32c2.9,0,5.63,1.13,7.68,3.18l9.1,9.1c2.05,2.05,3.18,4.78,3.18,7.67v24.8c0,4.45-3.62,8.07-8.07,8.07Z"/><path class="cls-1" d="m33.52,29.18H2.76c-1.53,0-2.76-1.24-2.76-2.76s1.24-2.76,2.76-2.76h30.76c1.53,0,2.76,1.24,2.76,2.76s-1.24,2.76-2.76,2.76Z"/><path class="cls-1" d="m27.58,38c-.71,0-1.41-.27-1.95-.81-1.08-1.08-1.08-2.83,0-3.91l6.87-6.86-6.87-6.87c-1.08-1.08-1.08-2.83,0-3.91s2.83-1.08,3.91,0l8.82,8.82c.52.52.81,1.22.81,1.95s-.29,1.44-.81,1.95l-8.82,8.82c-.54.54-1.25.81-1.95.81Z"/></svg>