<?xml version="1.0" encoding="UTF-8"?><svg id="Layer_1" xmlns="http://www.w3.org/2000/svg" viewBox="0 0 60 45.12"><defs><style>.cls-1{fill:#ebe8f5;}</style></defs><path class="cls-1" d="m53.58,17.16c-1.36-2.09-3.67-3.36-6.17-3.36h-6.31s0-.04,0-.06v-6.38c0-4.05-3.29-7.36-7.35-7.36H7.35C3.3,0,0,3.31,0,7.36v25.04C0,36.45,3.3,39.76,7.35,39.76h1.61c1.17,3.13,4.19,5.36,7.73,5.36s6.54-2.23,7.72-5.36h8.69c1.17,3.13,4.2,5.36,7.73,5.36s6.55-2.23,7.73-5.36h4.09c4.05,0,7.35-3.31,7.35-7.36v-3.15c0-1.42-.41-2.8-1.18-4l-5.24-8.09Zm-34.16,19.71c0,1.52-1.22,2.75-2.73,2.75s-2.74-1.23-2.74-2.75c0-1.23.81-2.27,1.92-2.62.26-.08.54-.12.82-.12s.56.04.82.12c1.1.35,1.91,1.39,1.91,2.62Zm24.15,0c0,1.52-1.23,2.75-2.74,2.75s-2.74-1.23-2.74-2.75c0-1.23.81-2.27,1.92-2.62.26-.08.54-.12.82-.12s.56.04.82.12c1.11.35,1.92,1.39,1.92,2.62Zm10.93-4.47c0,1.02-.83,1.85-1.85,1.85h-4c-1.1-3.26-4.19-5.62-7.82-5.62s-6.72,2.36-7.82,5.62h-8.51c-1.1-3.26-4.18-5.62-7.81-5.62s-6.73,2.36-7.82,5.62h-1.52c-1.01,0-1.84-.83-1.84-1.85V7.36c0-1.02.83-1.85,1.84-1.85h26.39c1.02,0,1.84.83,1.84,1.85v11.95h.02v3.77c0,1.52,1.23,2.75,2.75,2.75s2.75-1.23,2.75-2.75v-3.77h6.31c.63,0,1.21.32,1.55.85l5.24,8.09c.2.3.3.65.3,1v3.15Z"/></svg>