<?xml version="1.0" encoding="UTF-8"?><svg id="Layer_1" xmlns="http://www.w3.org/2000/svg" viewBox="0 0 60 59.39"><defs><style>.cls-1{fill:#ebe8f5;}</style></defs><path class="cls-1" d="m19.23,0h-10.71C3.82,0,0,3.82,0,8.51v10.71C0,23.92,3.82,27.74,8.51,27.74h10.71c4.69,0,8.51-3.82,8.51-8.51v-10.71C27.74,3.82,23.92,0,19.23,0Zm3.05,19.23c0,1.68-1.37,3.05-3.05,3.05h-10.71c-1.68,0-3.05-1.37-3.05-3.05v-10.71c0-1.68,1.37-3.05,3.05-3.05h10.71c1.68,0,3.05,1.37,3.05,3.05v10.71Z"/><path class="cls-1" d="m51.49,0h-10.71C36.08,0,32.26,3.82,32.26,8.51v10.71c0,4.69,3.82,8.51,8.51,8.51h10.71c4.69,0,8.51-3.82,8.51-8.51v-10.71C60,3.82,56.18,0,51.49,0Zm3.05,19.23c0,1.68-1.37,3.05-3.05,3.05h-10.71c-1.68,0-3.05-1.37-3.05-3.05v-10.71c0-1.68,1.37-3.05,3.05-3.05h10.71c1.68,0,3.05,1.37,3.05,3.05v10.71Z"/><path class="cls-1" d="m19.23,31.65h-10.71C3.82,31.65,0,35.47,0,40.16v10.71C0,55.57,3.82,59.39,8.51,59.39h10.71c4.69,0,8.51-3.82,8.51-8.51v-10.71c0-4.69-3.82-8.51-8.51-8.51Zm3.05,19.23c0,1.68-1.37,3.05-3.05,3.05h-10.71c-1.68,0-3.05-1.37-3.05-3.05v-10.71c0-1.68,1.37-3.05,3.05-3.05h10.71c1.68,0,3.05,1.37,3.05,3.05v10.71Z"/><path class="cls-1" d="m51.49,31.65h-10.71c-4.69,0-8.51,3.82-8.51,8.51v10.71c0,4.69,3.82,8.51,8.51,8.51h10.71c4.69,0,8.51-3.82,8.51-8.51v-10.71c0-4.69-3.82-8.51-8.51-8.51Zm3.05,19.23c0,1.68-1.37,3.05-3.05,3.05h-10.71c-1.68,0-3.05-1.37-3.05-3.05v-10.71c0-1.68,1.37-3.05,3.05-3.05h10.71c1.68,0,3.05,1.37,3.05,3.05v10.71Z"/></svg>