<?xml version="1.0" encoding="UTF-8"?><svg id="Layer_1" xmlns="http://www.w3.org/2000/svg" viewBox="0 0 46.28 46.28"><defs><style>.cls-1{fill:#ebe8f5;}</style></defs><path class="cls-1" d="m38.87-.2h-7.55c-1.66,0-3,1.34-3,3s1.34,3,3,3h7.55c.89,0,1.61.72,1.61,1.61v7.55c0,1.66,1.34,3,3,3s3-1.34,3-3v-7.55c0-4.2-3.41-7.61-7.61-7.61Z"/><path class="cls-1" d="m7.41-.2C3.21-.2-.2,3.21-.2,7.41v7.55c0,1.66,1.34,3,3,3s3-1.34,3-3v-7.55c0-.89.72-1.61,1.61-1.61h7.54c1.66,0,3-1.34,3-3S16.61-.2,14.95-.2h-7.54Z"/><path class="cls-1" d="m14.95,46.48c1.66,0,3-1.34,3-3s-1.34-3-3-3h-7.54c-.89,0-1.61-.72-1.61-1.61v-7.55c0-1.66-1.34-3-3-3S-.2,29.66-.2,31.32v7.55c0,4.2,3.41,7.61,7.61,7.61h7.54Z"/><path class="cls-1" d="m43.48,28.32c-1.66,0-3,1.34-3,3v7.55c0,.89-.72,1.61-1.61,1.61h-7.55c-1.66,0-3,1.34-3,3s1.34,3,3,3h7.55c4.2,0,7.61-3.41,7.61-7.61v-7.55c0-1.66-1.34-3-3-3Z"/></svg>