<?xml version="1.0" encoding="UTF-8"?><svg id="Layer_1" xmlns="http://www.w3.org/2000/svg" viewBox="0 0 47.28 33.65"><defs><style>.cls-1{fill:#ebe8f5;}</style></defs><path class="cls-1" d="m47.28,2.84C47.28,1.27,46.01,0,44.44,0H2.84C1.27,0,0,1.27,0,2.84s1.27,2.84,2.84,2.84h41.61c1.57,0,2.84-1.27,2.84-2.84Z"/><path class="cls-1" d="m37.34,19.66c1.57,0,2.84-1.27,2.84-2.84s-1.27-2.84-2.84-2.84H9.94c-1.57,0-2.84,1.27-2.84,2.84s1.27,2.84,2.84,2.84h27.4Z"/><path class="cls-1" d="m17.04,27.97c-1.57,0-2.84,1.27-2.84,2.84s1.27,2.84,2.84,2.84h13.2c1.57,0,2.84-1.27,2.84-2.84s-1.27-2.84-2.84-2.84h-13.2Z"/></svg>