<?xml version="1.0" encoding="UTF-8"?><svg id="Layer_1" xmlns="http://www.w3.org/2000/svg" viewBox="0 0 60 52.83"><defs><style>.cls-1{fill:#ebe8f5;}</style></defs><path class="cls-1" d="m17.41,16.92c1.53,0,2.76-1.24,2.76-2.76v-6.08c0-1.4,1.14-2.55,2.55-2.55h17.32c1.42,0,2.76.55,3.77,1.56l9.1,9.1c1.01,1.01,1.56,2.34,1.56,3.77v24.8c0,1.41-1.14,2.55-2.55,2.55h-29.2c-1.41,0-2.55-1.14-2.55-2.55v-7.43c0-1.53-1.24-2.76-2.76-2.76s-2.76,1.24-2.76,2.76v7.43c0,4.45,3.62,8.07,8.07,8.07h29.2c4.45,0,8.07-3.62,8.07-8.07v-24.8c0-2.9-1.13-5.62-3.18-7.67l-9.1-9.1C45.67,1.13,42.95,0,40.05,0h-17.32C18.27,0,14.65,3.62,14.65,8.07v6.08c0,1.53,1.24,2.76,2.76,2.76Z"/><path class="cls-1" d="m2.76,29.18h26.96l-4.1,4.1c-1.08,1.08-1.08,2.83,0,3.91.54.54,1.25.81,1.95.81s1.41-.27,1.95-.81l8.82-8.82c.52-.52.81-1.22.81-1.95s-.29-1.44-.81-1.95l-8.82-8.82c-1.08-1.08-2.83-1.08-3.91,0s-1.08,2.83,0,3.91l4.1,4.1H2.76C1.24,23.65,0,24.89,0,26.42s1.24,2.76,2.76,2.76Z"/></svg>