<?xml version="1.0" encoding="UTF-8"?><svg id="Layer_1" xmlns="http://www.w3.org/2000/svg" viewBox="0 0 60 49.25"><defs><style>.cls-1{fill:#ebe8f5;}</style></defs><path class="cls-1" d="m22.36,5.14h35.08c1.42,0,2.57-1.15,2.57-2.57S58.85,0,57.43,0H22.36C20.94,0,19.79,1.15,19.79,2.57s1.15,2.57,2.57,2.57Z"/><path class="cls-1" d="m22.36,17.79h23.51c1.42,0,2.57-1.15,2.57-2.57s-1.15-2.57-2.57-2.57h-23.51c-1.42,0-2.57,1.15-2.57,2.57s1.15,2.57,2.57,2.57Z"/><path class="cls-1" d="m22.36,30.44h11.95c1.42,0,2.57-1.15,2.57-2.57s-1.15-2.57-2.57-2.57h-11.95c-1.42,0-2.57,1.15-2.57,2.57s1.15,2.57,2.57,2.57Z"/><path class="cls-1" d="m8.95,48.5c.48.48,1.13.75,1.82.75s1.33-.27,1.82-.75l8.2-8.2c1-1,1-2.63,0-3.63-1-1-2.63-1-3.63,0l-3.81,3.81V2.57C13.33,1.15,12.18,0,10.77,0s-2.57,1.15-2.57,2.57v37.92l-3.81-3.81c-1-1-2.63-1-3.63,0-1,1-1,2.63,0,3.63l8.2,8.2Z"/></svg>