<?xml version="1.0" encoding="UTF-8"?><svg id="Layer_1" xmlns="http://www.w3.org/2000/svg" viewBox="0 0 33.58 47.28"><defs><style>.cls-1{fill:#ebe8f5;}</style></defs><path class="cls-1" d="m27.9,2.84v41.61c0,1.57,1.27,2.84,2.84,2.84s2.84-1.27,2.84-2.84V2.84C33.58,1.27,32.31,0,30.74,0s-2.84,1.27-2.84,2.84Z"/><path class="cls-1" d="m16.79,0C15.22,0,13.95,1.27,13.95,2.84v41.61c0,1.57,1.27,2.84,2.84,2.84s2.84-1.27,2.84-2.84V2.84C19.63,1.27,18.36,0,16.79,0Z"/><path class="cls-1" d="m0,2.84v41.61C0,46.01,1.27,47.28,2.84,47.28s2.84-1.27,2.84-2.84V2.84C5.68,1.27,4.41,0,2.84,0S0,1.27,0,2.84Z"/></svg>