<?xml version="1.0" encoding="UTF-8"?><svg id="Layer_1" xmlns="http://www.w3.org/2000/svg" viewBox="0 0 67.48 61.43"><defs><style>.cls-1{fill:#ebe8f5;}</style></defs><path class="cls-1" d="m45.65,54.83h-10.27c-1.52,0-2.75-1.23-2.75-2.75s1.23-2.75,2.75-2.75h10.27c1.27,0,2.3-1.03,2.3-2.3,0-1.52,1.23-2.75,2.75-2.75s2.75,1.23,2.75,2.75c0,4.3-3.5,7.8-7.8,7.8Z"/><path class="cls-1" d="m50.7,17.15c-1.52,0-2.75-1.23-2.75-2.75,0-1.27-1.03-2.3-2.3-2.3h-10.27c-1.52,0-2.75-1.23-2.75-2.75s1.23-2.75,2.75-2.75h10.27c4.3,0,7.8,3.5,7.8,7.8,0,1.52-1.23,2.75-2.75,2.75Z"/><path class="cls-1" d="m29.91,61.43c-.63,0-1.27-.08-1.9-.23l-22.09-5.49c-3.48-.87-5.92-3.98-5.92-7.57V13.3c0-3.59,2.43-6.7,5.92-7.57L28.01.23c2.35-.58,4.78-.06,6.69,1.42,1.9,1.49,3,3.73,3,6.14v45.82c0,2.42-1.09,4.66-3,6.14-1.39,1.09-3.07,1.66-4.79,1.66Zm-.01-55.93c-.19,0-.37.02-.56.07L7.24,11.06c-1.03.25-1.74,1.17-1.74,2.23v34.84c0,1.06.72,1.98,1.74,2.23l22.09,5.49c.69.17,1.41.02,1.97-.42.56-.44.88-1.1.88-1.81V7.8c0-.71-.32-1.37-.88-1.81-.41-.32-.9-.49-1.41-.49Z"/><path class="cls-1" d="m12.7,35l10.14-10.14c.43-.43,1.13-.43,1.56,0s.43,1.13,0,1.56l-10.14,10.14c-.43.43-1.13.43-1.56,0s-.43-1.13,0-1.56Z"/><path class="cls-1" d="m13.48,37.89c-.56,0-1.09-.22-1.49-.62-.82-.82-.82-2.15,0-2.97l10.14-10.14c.82-.82,2.16-.82,2.97,0,.4.4.62.92.62,1.49s-.22,1.09-.62,1.49l-10.14,10.14c-.4.4-.93.62-1.49.62Zm10.14-12.35s-.05.01-.07.03l-10.14,10.14s-.04.11,0,.15h.15l10.14-10.14s.04-.11,0-.15c-.02-.02-.05-.03-.07-.03Z"/><path class="cls-1" d="m12.7,24.86c.43-.43,1.13-.43,1.56,0l10.14,10.14c.43.43.43,1.13,0,1.56s-1.13.43-1.56,0l-10.14-10.14c-.43-.43-.43-1.13,0-1.56Z"/><path class="cls-1" d="m23.62,37.89c-.56,0-1.09-.22-1.49-.62l-10.14-10.14c-.82-.82-.82-2.16,0-2.98h0c.82-.82,2.15-.82,2.97,0l10.14,10.14c.4.4.62.92.62,1.49s-.22,1.09-.62,1.49c-.4.4-.92.62-1.49.62Zm-10.21-12.32s-.04.11,0,.15l10.14,10.14h.15v-.15s-10.14-10.14-10.14-10.14c-.04-.04-.11-.04-.15,0Z"/><path class="cls-1" d="m43.69,30.75c0-1.33,1.08-2.41,2.41-2.41h18.96c1.33,0,2.41,1.08,2.41,2.41s-1.08,2.41-2.41,2.41h-18.96c-1.33,0-2.41-1.08-2.41-2.41Z"/><path class="cls-1" d="m41.18,30.75c0-.64.25-1.25.71-1.71l7.7-7.7c.94-.94,2.47-.94,3.41,0s.94,2.47,0,3.41l-5.99,5.99,5.99,5.99c.94.94.94,2.47,0,3.41-.94.94-2.47.94-3.41,0l-7.7-7.7c-.45-.45-.71-1.07-.71-1.71Z"/></svg>