<?xml version="1.0" encoding="UTF-8"?><svg id="Layer_1" xmlns="http://www.w3.org/2000/svg" viewBox="0 0 60.51 49.24"><defs><style>.cls-1{fill:#ebe8f5;}</style></defs><path class="cls-1" d="m60.11,22.99c-.29-.58-7.92-13.54-29.38-13.75-.17-.04-.37-.04-.58-.04h-.08c-3.42,0-6.46.38-9.21.96L11.61.91c-1.25-1.21-3.21-1.21-4.42,0-.92.92-1.17,2.25-.71,3.38.17.37.38.75.71,1.04l6.83,6.87,4.88,4.83,5.58,5.58,8.5,8.5,2.5,2.54,5.42,5.42,9.25,9.25c.33.29.71.54,1.08.67.37.17.75.25,1.13.25.83,0,1.63-.33,2.21-.92,1.25-1.25,1.25-3.21,0-4.42l-7.08-7.08c8.87-3.92,12.42-10,12.62-10.38.33-.54.46-1.08.37-1.67v-.04c.09-.58-.04-1.21-.37-1.75Zm-17.42,9.04l-5.38-5.38c.25-.62.33-1.29.33-1.96,0-3.71-3.04-6.75-6.75-6.75-.71,0-1.33.08-1.96.33l-2.62-2.62c1.21-.13,2.5-.21,3.83-.21h.21c14.25.08,21.04,6.46,23.33,9.29-1.5,1.83-4.92,5.17-11,7.29Z"/><path class="cls-1" d="m33.86,40.07c-1.08.13-2.25.17-3.42.17h-.37C8.36,40.12.69,27.03.36,26.45c-.29-.54-.42-1.17-.33-1.75v-.08c-.08-.54.04-1.13.33-1.62.17-.33,2.58-4.42,8.33-8.08l4.54,4.54c-3.33,1.87-5.38,3.96-6.46,5.29,2.25,2.67,8.37,8.42,20.88,9.13l.04.04.67.67,5.5,5.5Z"/></svg>