<?xml version="1.0" encoding="UTF-8"?><svg id="Layer_1" xmlns="http://www.w3.org/2000/svg" viewBox="0 0 60 45.24"><defs><style>.cls-1{fill:#ebe8f5;}</style></defs><path class="cls-1" d="m3.07,16.15h53.87c1.69,0,3.07-1.37,3.07-3.07s-1.37-3.07-3.07-3.07H3.07c-1.69,0-3.07,1.37-3.07,3.07s1.37,3.07,3.07,3.07Z"/><path class="cls-1" d="m8.31,5.27l39.04,39.04c1.23,1.23,3.19,1.25,4.39.05s1.17-3.16-.05-4.39L12.65.94c-1.23-1.23-3.19-1.25-4.39-.05s-1.17,3.16.05,4.39Z"/><path class="cls-1" d="m14.07,29.71h31.86c1.69,0,3.07-1.37,3.07-3.07s-1.37-3.07-3.07-3.07H14.07c-1.69,0-3.07,1.37-3.07,3.07s1.37,3.07,3.07,3.07Z"/><path class="cls-1" d="m23.58,43.27h12.84c1.69,0,3.07-1.37,3.07-3.07s-1.37-3.07-3.07-3.07h-12.84c-1.69,0-3.07,1.37-3.07,3.07s1.37,3.07,3.07,3.07Z"/></svg>