<?xml version="1.0" encoding="UTF-8"?><svg id="Layer_1" xmlns="http://www.w3.org/2000/svg" viewBox="0 0 33.58 47.28"><defs><style>.cls-1{fill:#ebe8f5;}</style></defs><path class="cls-1" d="m27.9,44.44V2.84c0-1.57,1.27-2.84,2.84-2.84s2.84,1.27,2.84,2.84v41.61c0,1.57-1.27,2.84-2.84,2.84s-2.84-1.27-2.84-2.84Z"/><path class="cls-1" d="m13.95,44.44V2.84c0-1.57,1.27-2.84,2.84-2.84s2.84,1.27,2.84,2.84v41.61c0,1.57-1.27,2.84-2.84,2.84s-2.84-1.27-2.84-2.84Z"/><path class="cls-1" d="m0,44.44V2.84C0,1.27,1.27,0,2.84,0s2.84,1.27,2.84,2.84v41.61c0,1.57-1.27,2.84-2.84,2.84s-2.84-1.27-2.84-2.84Z"/></svg>