<?xml version="1.0" encoding="UTF-8"?><svg id="Layer_1" xmlns="http://www.w3.org/2000/svg" viewBox="0 0 60 33.24"><defs><style>.cls-1{fill:#1a1f3d;}</style></defs><path class="cls-1" d="m56.93,6.13H3.07c-1.69,0-3.07-1.37-3.07-3.07S1.37,0,3.07,0h53.87c1.69,0,3.07,1.37,3.07,3.07s-1.37,3.07-3.07,3.07Z"/><path class="cls-1" d="m40.92,19.69H3.07c-1.69,0-3.07-1.37-3.07-3.07s1.37-3.07,3.07-3.07h37.86c1.69,0,3.07,1.37,3.07,3.07s-1.37,3.07-3.07,3.07Z"/><path class="cls-1" d="m24.92,33.24H3.07c-1.69,0-3.07-1.37-3.07-3.07s1.37-3.07,3.07-3.07h21.85c1.69,0,3.07,1.37,3.07,3.07s-1.37,3.07-3.07,3.07Z"/></svg>