<?xml version="1.0" encoding="UTF-8"?><svg id="Layer_1" xmlns="http://www.w3.org/2000/svg" viewBox="0 0 60 33.24"><defs><style>.cls-1{fill:#1a1f3d;}</style></defs><path class="cls-1" d="m3.07,6.13h53.87c1.69,0,3.07-1.37,3.07-3.07s-1.37-3.07-3.07-3.07H3.07C1.37,0,0,1.37,0,3.07s1.37,3.07,3.07,3.07Z"/><path class="cls-1" d="m14.07,19.69h31.86c1.69,0,3.07-1.37,3.07-3.07s-1.37-3.07-3.07-3.07H14.07c-1.69,0-3.07,1.37-3.07,3.07s1.37,3.07,3.07,3.07Z"/><path class="cls-1" d="m23.58,33.24h12.84c1.69,0,3.07-1.37,3.07-3.07s-1.37-3.07-3.07-3.07h-12.84c-1.69,0-3.07,1.37-3.07,3.07s1.37,3.07,3.07,3.07Z"/></svg>