<?xml version="1.0" encoding="UTF-8"?><svg id="Layer_1" xmlns="http://www.w3.org/2000/svg" viewBox="0 0 920.57 270.51"><defs><style>.cls-1{fill:#6e0ff5;}.cls-2{fill:#3c3547;}</style></defs><path class="cls-1" d="m292.32,135.24c0,2.61-2.04,4.72-4.6,4.85h-150.48c-.61-.02-1.21-.03-1.82-.03s-1.21,0-1.82.03c-25.1.74-46.35,16.8-54.74,39.15-2.48,6.6-3.83,13.74-3.83,21.21,0,32.84,26.2,59.54,58.83,60.37.52.01,1.04.02,1.56.02s1.04,0,1.56-.02c32.63-.83,58.83-27.53,58.83-60.37,0-5.1-.63-10.06-1.83-14.79-.01-.01-.01-.03-.01-.05-.06-.22-.11-.45-.17-.67-.01,0-.01-.02-.01-.03-.05-.26-.07-.53-.07-.81,0-2.68,2.17-4.86,4.86-4.86h57.95c2.57.13,4.61,2.24,4.61,4.84,0,.42-.05.82-.16,1.2.01.02,0,.03-.01.05-.15.39-.31.79-.48,1.18h0c-13.85,33.78-40.94,60.7-74.84,74.31-15.57,6.25-32.57,9.69-50.37,9.69s-34.79-3.44-50.36-9.69c-36.3-14.56-64.82-44.41-77.6-81.58C3.08,166.9.57,153.75.09,140.09c-.06-1.61-.09-3.23-.09-4.85s.03-3.24.09-4.85C2.61,58.87,60.65,1.48,132.43,0c2.13,0,3.93,1.37,4.58,3.28.05.84.11,1.69.18,2.53,5.45,68.97,62.57,123.4,132.66,124.58.2,0,.41,0,.61,0,.57.01,1.15.01,1.72.01.78,0,1.56-.01,2.33-.02h12.96c2.68,0,4.85,2.17,4.85,4.85Z"/><path class="cls-2" d="m805.98,179.49c-10.88,0-20.32-3.92-28.05-11.65-7.73-7.73-11.65-17.17-11.65-28.05v-52.24c.09-8.23,3.04-15.37,8.77-21.21,5.9-5.88,12.84-8.75,21.2-8.75h24.76c3.86,0,6.99,3.14,6.99,6.99s-3.14,6.99-6.99,6.99h-24.76c-4.42,0-8.23,1.56-11.33,4.63-3.04,3.1-4.6,6.9-4.66,11.31v24.09l3.18-3.38c5.1-5.4,12.68-8.14,22.53-8.14,10.88,0,20.32,3.92,28.05,11.65,7.73,7.73,11.65,17.17,11.65,28.05s-3.92,20.32-11.65,28.05c-7.73,7.73-17.17,11.65-28.05,11.65Zm0-65.41c-7.1,0-13.22,2.51-18.18,7.46-5,5-7.53,11.14-7.53,18.25s2.53,13.17,7.53,18.18c5.01,5,11.13,7.53,18.19,7.53s13.26-2.53,18.25-7.53c4.95-5.03,7.46-11.14,7.46-18.19s-2.51-13.24-7.46-18.24c-5.01-4.96-11.15-7.47-18.26-7.47Z"/><path class="cls-2" d="m913.57,179.49c-3.86,0-6.99-3.14-6.99-6.99v-39.35c0-5.22-1.85-9.76-5.5-13.48-3.73-3.72-8.27-5.59-13.51-5.59s-9.86,1.88-13.56,5.58c-3.67,3.73-5.53,8.26-5.53,13.49v39.35c0,3.86-3.14,6.99-6.99,6.99s-6.99-3.14-6.99-6.99v-39.35c0-9.07,3.27-16.93,9.72-23.36,6.44-6.44,14.3-9.7,23.36-9.7s16.75,3.17,23.3,9.7c6.43,6.44,9.7,14.29,9.7,23.36v39.35c0,3.86-3.14,6.99-6.99,6.99Z"/><path class="cls-2" d="m748.02,179.49c-3.85,0-6.99-3.13-6.99-6.99v-39.36c0-5.23-1.86-9.77-5.52-13.48-3.71-3.71-8.24-5.59-13.49-5.59s-9.86,1.88-13.57,5.57c-3.66,3.72-5.51,8.26-5.51,13.5v39.36c0,3.85-3.13,6.99-6.99,6.99s-7-3.13-7-6.99v-39.36c0-9.06,3.26-16.92,9.7-23.36,6.54-6.53,14.19-9.7,23.37-9.7s16.84,3.26,23.28,9.7c6.44,6.42,9.7,14.28,9.7,23.36v39.36c0,3.85-3.13,6.99-6.99,6.99Z"/><path class="cls-2" d="m390.36,179.49c-10.88,0-20.32-3.92-28.05-11.65-1.17-1.15-2.25-2.36-3.22-3.6-.48-.58-.89-1.13-1.29-1.7-.28-.39-.54-.75-.78-1.13-.16-.23-.27-.4-.38-.58-.18-.28-.29-.46-.39-.63l-.11-.18-.05-.12-.03-.04c-3.57-5.92-5.38-12.68-5.38-20.08,0-10.75,3.82-20.07,11.35-27.73l.53-.54c.3-.29.56-.56.84-.8,3.96-3.72,8.15-6.38,12.86-8.16l.2-.07c1.44-.52,2.66-.9,3.84-1.18,3.16-.8,6.55-1.21,10.08-1.21,5.32,0,9.98.79,13.87,2.35,3.39,1.33,6.3,3.27,8.66,5.78l3.18,3.38.04-21.05c0-5.22-1.86-9.76-5.54-13.49-3.71-3.71-8.24-5.59-13.47-5.59-1.24,0-2.42.1-3.5.29-3.8.63-7.2,2.41-10.09,5.28-1.72,1.75-3.04,3.69-3.96,5.78-1.18,2.71-3.74,4.45-6.52,4.45-2.38,0-4.59-1.19-5.91-3.18-1.29-1.95-1.52-4.29-.62-6.41,1.61-3.8,4.03-7.33,7.21-10.5,5.71-5.71,12.52-8.93,20.26-9.56,1.03-.1,2.08-.14,3.12-.14,9.01,0,16.84,3.26,23.26,9.7,6.53,6.5,9.7,14.14,9.7,23.36v49.23c0,.68-.02,1.37-.05,2.05-.03.66-.08,1.32-.14,1.99-.05.69-.13,1.32-.22,1.95-.1.66-.21,1.32-.32,1.97-.07.4-.17.81-.26,1.21l-.15.63c-.15.62-.31,1.23-.5,1.82-.19.66-.39,1.26-.6,1.85l-.09.27c-.18.47-.36.95-.56,1.42-.16.4-.32.77-.5,1.15-.12.28-.22.5-.33.71l-.1.21c-.29.58-.5,1-.72,1.41-.3.54-.62,1.1-.95,1.64-.28.47-.56.9-.85,1.33l-.12.19c-.04.08-.1.15-.15.22l-.36.5c-.17.24-.34.49-.52.72-1.22,1.64-2.62,3.26-4.17,4.81-7.73,7.73-17.17,11.65-28.05,11.65Zm-16.4-59.64c-.64.52-1.25,1.08-1.85,1.68-.18.18-.34.34-.49.51-4.61,4.87-6.97,10.86-6.97,17.74,0,4.79,1.16,9.19,3.46,13.05.23.39.48.79.76,1.19.11.17.28.41.44.63.88,1.23,1.8,2.31,2.8,3.32,5.01,5,11.16,7.53,18.26,7.53h.23c.35,0,.73-.02,1.09-.04,0,0,.02,0,.03,0,.15,0,.38-.02.6-.03l.78-.07c5.06-.48,9.62-2.38,13.53-5.64.36-.3.68-.6,1.01-.89.3-.26.61-.55.92-.86l.54-.54v-.03c.55-.57,1.05-1.15,1.5-1.72.25-.3.52-.66.79-1.01.66-.94,1.16-1.73,1.58-2.48.12-.22.48-.89.48-.89.52-1.05.93-2,1.24-2.9.27-.76.5-1.54.68-2.29.1-.39.19-.81.27-1.24.08-.36.14-.8.19-1.25.06-.34.1-.79.14-1.25.05-.37.07-.82.09-1.28.02-.41.04-.85.04-1.29,0-7.12-2.53-13.26-7.53-18.25-.77-.77-1.58-1.49-2.49-2.21-4.47-3.49-9.75-5.25-15.7-5.25-4.12,0-7.93.84-11.32,2.5-1.49.71-2.92,1.6-4.36,2.71l-.72.55v.02Z"/><path class="cls-2" d="m639.52,231.19c-8.37,0-15.3-2.87-21.2-8.76-6.21-6.3-8.67-11.78-8.76-19.56v-69.72c0-9.08,3.26-16.94,9.7-23.36,6.44-6.44,14.3-9.7,23.36-9.7s16.86,3.26,23.29,9.7c6.44,6.44,9.7,14.3,9.7,23.36v39.36c0,3.85-3.13,6.99-6.99,6.99s-7-3.13-7-6.99v-39.36c0-5.24-1.85-9.78-5.5-13.49-3.73-3.71-8.27-5.59-13.5-5.59s-9.86,1.88-13.56,5.58c-3.66,3.72-5.51,8.25-5.51,13.49v69.74c.04,4.66,1.77,6.76,4.62,9.67,3.1,3.1,6.91,4.67,11.34,4.67h4.07c3.85,0,6.99,3.13,6.99,6.99s-3.13,6.99-6.99,6.99h-4.07Z"/><path class="cls-2" d="m588.75,179.49c-3.85,0-6.99-3.13-6.99-6.99v-39.36c0-5.24-1.85-9.78-5.5-13.48-3.73-3.71-8.27-5.59-13.5-5.59s-9.86,1.88-13.56,5.58c-3.67,3.73-5.53,8.26-5.53,13.49v39.36c0,3.85-3.13,6.99-6.99,6.99s-6.99-3.13-6.99-6.99v-107.83c0-3.85,3.13-6.99,6.99-6.99s6.99,3.13,6.99,6.99v41.28l2.77-1.6c4.88-2.83,10.38-4.26,16.32-4.26,9.13,0,16.75,3.17,23.29,9.7,6.44,6.44,9.7,14.3,9.7,23.36v39.36c0,3.85-3.13,6.99-6.99,6.99h-.02Z"/><path class="cls-2" d="m477.87,179.49c-17.78,0-33.51-11.95-38.26-29.07-.58-2.09-.15-4.28,1.17-6.01,1.34-1.76,3.38-2.78,5.59-2.78,3.15,0,5.88,2.13,6.8,5.31,3.16,10.93,13.32,18.56,24.7,18.56.33,0,.67,0,1-.02,13.34-.51,24.18-11.35,24.69-24.69.45-11.85-7.17-22.42-18.54-25.71-3.17-.92-5.31-3.64-5.31-6.78,0-3.89,3.11-7.03,6.94-7.03.62,0,1.24.09,1.85.25,17.96,4.98,30.15,22.14,28.99,40.8-1.24,19.91-17.18,35.85-37.08,37.08-.85.05-1.7.08-2.54.08Z"/></svg>