<?xml version="1.0" encoding="UTF-8"?><svg id="Layer_1" xmlns="http://www.w3.org/2000/svg" viewBox="0 0 763.53 270.51"><defs><style>.cls-1{fill:#6e0ff5;}.cls-2{fill:#3c3547;}</style></defs><path class="cls-1" d="m292.32,135.24c0,2.61-2.04,4.72-4.6,4.85h-150.48c-.61-.02-1.21-.03-1.82-.03s-1.21,0-1.82.03c-25.1.74-46.35,16.8-54.74,39.15-2.48,6.6-3.83,13.74-3.83,21.21,0,32.84,26.2,59.54,58.83,60.37.52.01,1.04.02,1.56.02s1.04,0,1.56-.02c32.63-.83,58.83-27.53,58.83-60.37,0-5.1-.63-10.06-1.83-14.79-.01-.01-.01-.03-.01-.05-.06-.22-.11-.45-.17-.67-.01,0-.01-.02-.01-.03-.05-.26-.07-.53-.07-.81,0-2.68,2.17-4.86,4.86-4.86h57.95c2.57.13,4.61,2.24,4.61,4.84,0,.42-.05.82-.16,1.2.01.02,0,.03-.01.05-.15.39-.31.79-.48,1.18h0c-13.85,33.78-40.94,60.7-74.84,74.31-15.57,6.25-32.57,9.69-50.37,9.69s-34.79-3.44-50.36-9.69c-36.3-14.56-64.82-44.41-77.6-81.58C3.08,166.9.57,153.75.09,140.09c-.06-1.61-.09-3.23-.09-4.85s.03-3.24.09-4.85C2.61,58.87,60.65,1.48,132.43,0c2.13,0,3.93,1.37,4.58,3.28.05.84.11,1.69.18,2.53,5.45,68.97,62.57,123.4,132.66,124.58.2,0,.41,0,.61,0,.57.01,1.15.01,1.72.01.78,0,1.56-.01,2.33-.02h12.96c2.68,0,4.85,2.17,4.85,4.85Z"/><path class="cls-2" d="m756.54,179.49c-3.85,0-6.99-3.13-6.99-6.99v-39.36c0-5.23-1.86-9.77-5.52-13.48-3.71-3.71-8.24-5.59-13.49-5.59s-9.86,1.88-13.57,5.57c-3.66,3.72-5.51,8.26-5.51,13.5v39.36c0,3.85-3.13,6.99-6.99,6.99s-7-3.13-7-6.99v-39.36c0-9.06,3.26-16.92,9.7-23.36,6.54-6.53,14.19-9.7,23.37-9.7s16.84,3.26,23.28,9.7c6.44,6.42,9.7,14.28,9.7,23.36v39.36c0,3.85-3.13,6.99-6.99,6.99Z"/><path class="cls-2" d="m553.28,179.49c-3.47,0-6.44-2.58-6.91-6l-.42-3.03-2.49,1.79c-5.56,4-11.64,6.27-18.56,6.92-.31.04-.56.07-.8.09l-.35.03c-.32.03-.64.06-.96.06l-.65.02c-.37.02-.74.03-1.1.03h-.36c-4.6,0-8.97-.69-13.01-2.04-5.09-1.71-9.81-4.57-14.04-8.52-.41-.35-.74-.69-1.08-1.03-1.56-1.56-2.97-3.22-4.19-4.93l-.15-.21c-.23-.31-.46-.63-.66-.94-.42-.63-.81-1.22-1.15-1.83-3.54-5.93-5.32-12.69-5.32-20.1,0-10.63,3.63-19.85,10.8-27.42.24-.27.44-.48.63-.65,1.18-1.18,2.32-2.2,3.51-3.12l1.22-.95c1.98-1.45,3.95-2.64,5.99-3.62,5.22-2.55,11.09-3.84,17.45-3.84.94,0,1.87.04,2.79.09,8.12.5,15.1,3.1,21.34,7.95,1.5,1.2,2.74,2.3,3.89,3.44,7.69,7.71,11.59,17.17,11.59,28.12v32.72c0,1.85-.73,3.6-2.05,4.93-1.31,1.31-3.06,2.03-4.94,2.03Zm-49.02-59.61c-.62.51-1.23,1.06-1.84,1.67-.12.1-.32.3-.51.51-4.61,4.86-6.97,10.84-6.97,17.73,0,4.79,1.17,9.19,3.47,13.05.25.41.49.8.78,1.21.2.31.36.54.51.74.85,1.19,1.75,2.24,2.73,3.2,2.06,2.06,4.35,3.72,6.8,4.93,3.45,1.72,7.32,2.59,11.5,2.59.5,0,.88-.02,1.25-.04,0,0,.02,0,.03,0,.15,0,.4-.02.63-.04l.2-.02c.18-.02.27-.03.36-.03,5.26-.51,9.81-2.41,13.72-5.66.35-.29.67-.58,1-.87l1.47-1.38v-.07c.57-.61,1.06-1.16,1.49-1.71.17-.21.35-.44.52-.67l.25-.33c.57-.79,1.09-1.6,1.58-2.46l.47-.88c.43-.88.89-1.86,1.26-2.95.26-.76.5-1.53.68-2.29.12-.48.21-.88.27-1.3.05-.2.1-.55.15-.92l.03-.25c.05-.23.08-.59.11-.95l.03-.29c.02-.1.03-.27.04-.44.02-.2.03-.4.04-.61v-.23c.03-.45.05-.9.05-1.34,0-.8-.04-1.57-.1-2.35-.5-6.12-3-11.46-7.43-15.89-.83-.81-1.64-1.53-2.5-2.21-3.49-2.73-7.48-4.42-11.87-5.01-1.2-.17-2.46-.26-3.82-.26-4.1,0-7.91.84-11.32,2.51-1.47.69-2.91,1.57-4.37,2.7l-.72.55v.03Z"/><path class="cls-2" d="m461.97,179.49c-3.85,0-6.98-3.13-6.98-6.98v-81.94c0-2.4-.41-4.71-1.23-6.87l-.04-.11-.16-.29c-.07-.13-.14-.25-.2-.38-.9-2.1-2.24-4.06-3.98-5.84-2.9-2.88-6.3-4.66-10.12-5.3-1.11-.18-2.24-.27-3.37-.28-1.15,0-2.28.1-3.38.28-3.83.65-7.23,2.43-10.11,5.29-1.75,1.79-3.09,3.76-4,5.87-.06.14-.14.27-.21.4l-.06.11-.12.26c-.8,2.12-1.22,4.4-1.23,6.78v82.02c0,3.85-3.13,6.98-6.97,6.98s-6.99-3.13-6.99-6.98v-81.94c0-2.46-.42-4.74-1.22-6.87l-.04-.11-.15-.29c-.07-.12-.14-.25-.19-.38-.91-2.11-2.25-4.08-3.98-5.85-2.9-2.88-6.3-4.66-10.12-5.3-1.11-.18-2.24-.27-3.37-.28-1.15,0-2.28.1-3.38.28-3.83.65-7.23,2.43-10.11,5.29-1.76,1.8-3.1,3.76-4,5.87-.06.13-.13.25-.19.38l-.16.29-.04.11c-.82,2.15-1.23,4.46-1.23,6.87v81.94c0,3.85-3.13,6.98-6.98,6.98s-6.98-3.13-6.98-6.98v-81.94c0-9.23,3.17-16.88,9.69-23.36,6.43-6.45,14.26-9.71,23.28-9.71h.28c8.94,0,16.77,3.27,23.19,9.71.34.34.65.68.95,1.03l1.76,1.95,1.73-1.92c.32-.35.63-.71.97-1.05,6.43-6.45,14.26-9.71,23.28-9.71h.28c8.94,0,16.77,3.27,23.19,9.71,6.52,6.49,9.69,14.13,9.69,23.37v81.94c0,3.85-3.13,6.98-6.98,6.98Z"/><path class="cls-2" d="m582.35,179.49c-3.84,0-6.97-3.13-6.97-6.97v-39.36c0-9.06,3.27-16.92,9.71-23.36,6.54-6.52,14.19-9.69,23.38-9.69h8.76c3.85,0,6.99,3.13,6.99,6.99s-3.13,6.99-6.99,6.99h-8.7c-5.34,0-9.91,1.88-13.63,5.59-3.67,3.71-5.52,8.24-5.52,13.49v39.36c0,3.84-3.13,6.97-6.99,6.97h-.04Z"/><path class="cls-2" d="m644.94,179.49c-1.87,0-3.44-.67-4.81-2.04-1.38-1.33-2.04-2.9-2.04-4.81v-108.22c0-1.93.67-3.54,2.04-4.91,1.35-1.3,2.93-1.95,4.81-1.95h.29c1.88,0,3.46.64,4.84,1.97,1.35,1.35,2.01,2.95,2.01,4.89v108.22c0,1.92-.66,3.48-2.01,4.79-1.4,1.4-2.97,2.07-4.84,2.07h-.29Z"/><path class="cls-2" d="m676.18,179.49c-1.93,0-3.54-.67-4.91-2.04-1.38-1.33-2.04-2.9-2.04-4.81v-65.44c0-1.93.67-3.54,2.04-4.91,1.37-1.37,2.98-2.04,4.91-2.04h.19c1.92,0,3.48.66,4.79,2.02,1.4,1.4,2.06,3,2.06,4.93v65.44c0,1.92-.66,3.48-2.01,4.79-1.36,1.41-2.92,2.06-4.84,2.06h-.19Zm.09-101.09c-2.44,0-4.46-.82-6.15-2.52-1.69-1.69-2.52-3.71-2.52-6.15s.82-4.36,2.52-6.06c1.7-1.69,3.71-2.52,6.15-2.52s4.36.82,6.06,2.52c1.77,1.71,2.61,3.69,2.61,6.06s-.85,4.44-2.59,6.13c-1.72,1.71-3.7,2.54-6.08,2.54Z"/></svg>