<?xml version="1.0" encoding="UTF-8"?><svg id="Layer_1" xmlns="http://www.w3.org/2000/svg" viewBox="0 0 168.56 154.26"><defs><style>.cls-1,.cls-2{fill:#6e0ff5;}.cls-2{opacity:.54;}</style></defs><path class="cls-1" d="m114.1,68.96h0s-.39,0-.39,0c.13,0,.26,0,.39,0Z"/><path class="cls-1" d="m166.17,77.1h-12.66c-38.57,0-69.95-31.39-69.95-69.96v-2.41s-2.41.01-2.41.01c-19.88.1-38.56,7.92-52.59,22.02C14.51,40.88,6.78,59.6,6.78,79.5s7.66,38.47,21.58,52.55c13.87,14.04,32.37,21.92,52.08,22.2h0s2.18,0,2.18,0h0c30.15-.42,56.93-18.75,68.24-46.72.61-1.51.43-3.22-.48-4.58-.92-1.37-2.46-2.19-4.11-2.19h-27.06c-1.59,0-3.05.72-4.02,1.97-.98,1.27-1.31,2.89-.91,4.45.71,2.75,1.07,5.6,1.07,8.48,0,18.48-14.47,33.32-32.93,33.79h0s-1.75,0-1.75,0h0c-18.16-.46-32.93-15.62-32.93-33.79s14.99-33.63,33.48-33.8c.11.02.22.03.33.03h84.61c1.32,0,2.4-1.07,2.4-2.4s-1.07-2.4-2.4-2.4Z"/><path class="cls-2" d="m58.98,150.63l.21.45C25.03,141.43,0,110.02,0,72.78,0,40.93,18.29,13.36,44.95,0c1.44,9.85,7.83,19.26,17.83,21.26l-33.36,60.88,10.83,52.69,18.73,15.8Z"/></svg>