<?xml version="1.0" encoding="UTF-8"?><svg id="Layer_1" xmlns="http://www.w3.org/2000/svg" viewBox="0 0 58.26 27.54"><defs><style>.cls-1{fill:#1a1f3d;}</style></defs><path class="cls-1" d="m2.68,13.77c0-1.42,1.15-2.57,2.57-2.57h50.44c1.42,0,2.57,1.15,2.57,2.57s-1.15,2.57-2.57,2.57H5.24c-1.42,0-2.57-1.15-2.57-2.57Z"/><path class="cls-1" d="m0,13.77c0-.68.27-1.33.75-1.82L11.95.75c1-1,2.63-1,3.63,0s1,2.63,0,3.63L6.2,13.77l9.38,9.38c1,1,1,2.63,0,3.63-1,1-2.63,1-3.63,0L.75,15.58c-.48-.48-.75-1.13-.75-1.82Z"/></svg>