<?xml version="1.0" encoding="UTF-8"?><svg id="Layer_1" xmlns="http://www.w3.org/2000/svg" viewBox="0 0 60 34.09"><defs><style>.cls-1{fill:#6e0ff5;}.cls-2{fill:#f55364;}.cls-3{fill:#a064ff;}</style></defs><path class="cls-3" d="m38.49,13.22c0-2.43,1.97-4.39,4.39-4.39h.73v-2.76c0-3.35-2.71-6.06-6.06-6.06H6.06C2.71,0,0,2.71,0,6.06v18.05c0,3.35,2.71,6.06,6.06,6.06h2.31c0-.07,0-.15,0-.22,0-3.46,2.8-6.26,6.26-6.26s6.26,2.8,6.26,6.26c0,.07,0,.15,0,.22h16.68c.71,0,1.39-.12,2.01-.35l.11-1.05c-.73-.78-1.19-1.84-1.19-3v-12.56Z"/><path class="cls-2" d="m42.89,8.82c-2.42,0-4.39,1.97-4.39,4.39v12.56c0,1.16.45,2.21,1.19,3,.41-2.15,1.92-3.92,3.93-4.68v-15.27h-.73Z"/><path class="cls-1" d="m59.81,24.58l-3.35-11.34c-.78-2.62-3.18-4.42-5.91-4.42h-7.67c-2.42,0-4.39,1.97-4.39,4.39v12.56c0,1.16.45,2.21,1.19,3,.41-2.15,1.92-3.92,3.93-4.68.69-.26,1.43-.4,2.21-.4,3.46,0,6.26,2.8,6.26,6.26,0,.07,0,.15,0,.22h3.69c.87,0,1.68-.25,2.36-.69,1.6-1.02,2.22-3.08,1.68-4.91Z"/><path class="cls-3" d="m18.75,29.95c0,.07,0,.14,0,.22-.12,2.18-1.92,3.92-4.13,3.92s-4.01-1.73-4.13-3.92c0-.07,0-.14,0-.22,0-2.28,1.85-4.13,4.13-4.13s4.13,1.85,4.13,4.13Z"/><path class="cls-1" d="m45.82,25.82c-1.19,0-2.27.5-3.02,1.31,0,0,0,0,0,0-.25.27-.47.58-.64.92-.29.57-.46,1.21-.46,1.89v.05c.03,2.26,1.87,4.08,4.13,4.08s4.01-1.73,4.13-3.92c0-.07,0-.15,0-.22,0-2.28-1.85-4.13-4.13-4.13Z"/></svg>