<svg width="62" height="35" viewBox="0 0 62 35" fill="none" xmlns="http://www.w3.org/2000/svg">
<g clip-path="url(#clip0_485_4069)">
<path opacity="0.8" d="M43.938 27.8684C43.75 28.213 43.5307 28.5158 43.2802 28.8081C43.4577 28.4636 43.6874 28.1503 43.938 27.8684Z" fill="#1A1F3D"/>
<path opacity="0.8" d="M43.938 27.8684C43.75 28.213 43.5307 28.5158 43.2802 28.8081C43.4577 28.4636 43.6874 28.1503 43.938 27.8684Z" fill="#1A1F3D"/>
<path d="M39.5212 13.5741C39.5212 11.0785 41.5468 9.06333 44.0319 9.06333H44.7733V6.23368C44.7733 2.79841 41.9854 0.0105273 38.5501 0.0105273H6.22315C2.77745 8.57553e-05 0 2.78797 0 6.22324V24.7465C0 28.1818 2.77745 30.9697 6.22315 30.9697H8.59337C8.59337 30.8966 8.59337 30.8235 8.59337 30.7504C8.59337 27.2003 11.4752 24.3288 15.0149 24.3288C18.5546 24.3288 21.4365 27.2107 21.4365 30.7504C21.4365 30.8235 21.4365 30.8966 21.4365 30.9697H38.5606C39.2915 30.9697 39.9806 30.8444 40.628 30.6146L40.7428 29.5287C39.991 28.7247 39.5212 27.6388 39.5212 26.4485V13.5532V13.5741Z" fill="#F1B95B" fill-opacity="0.9"/>
<path d="M61.4066 25.2372L57.9713 13.5949C57.1778 10.9009 54.7031 9.06323 51.9048 9.06323H44.7733V24.7464C45.4833 24.4749 46.2455 24.3392 47.0391 24.3392C50.5892 24.3392 53.4606 27.221 53.4606 30.7607C53.4606 30.8338 53.4606 30.9069 53.4606 30.98H57.2509C58.1489 30.98 58.9737 30.719 59.6733 30.27C61.3231 29.2154 61.96 27.1166 61.4066 25.2372Z" fill="#F29757"/>
<path d="M44.0319 9.06323C41.5468 9.06323 39.5212 11.0784 39.5212 13.574V26.4693C39.5212 27.6596 39.9806 28.7455 40.7428 29.5495C41.1605 27.3359 42.7163 25.5295 44.7837 24.7464V9.06323H44.0424H44.0319Z" fill="#F29757"/>
<path d="M19.2542 30.7502C19.2542 30.8233 19.2542 30.8964 19.2542 30.9695C19.1393 33.2144 17.2911 34.9894 15.0149 34.9894C12.7386 34.9894 10.8905 33.2144 10.7756 30.9695C10.7756 30.8964 10.7756 30.8233 10.7756 30.7502C10.7756 28.4113 12.676 26.5005 15.0149 26.5005C17.3538 26.5005 19.2542 28.4008 19.2542 30.7502Z" fill="#F1B95B" fill-opacity="0.9"/>
<path d="M40.628 30.625C40.628 30.2595 40.6698 29.8941 40.7428 29.5391L40.628 30.625Z" fill="#1A1F3D"/>
<path d="M43.938 27.8684C43.75 28.213 43.5307 28.5158 43.2802 28.8081C43.4577 28.4636 43.6874 28.1503 43.938 27.8684Z" fill="#1A1F3D"/>
<path d="M51.2888 30.7503C51.2888 30.8234 51.2888 30.8965 51.2888 30.9696C51.1739 33.2145 49.3153 34.9896 47.0495 34.9896C44.7837 34.9896 42.8311 33.1205 42.8102 30.8025V30.7503C42.8102 30.0507 42.9773 29.3929 43.2801 28.8082C43.5307 28.5158 43.7604 28.213 43.9379 27.8684C44.7106 27.0331 45.8174 26.5215 47.0391 26.5215C49.378 26.5215 51.2783 28.4218 51.2783 30.7712L51.2888 30.7503Z" fill="#F29757"/>
<path opacity="0.8" d="M43.938 27.8684C43.75 28.213 43.5307 28.5158 43.2802 28.8081C43.4577 28.4636 43.6874 28.1503 43.938 27.8684Z" fill="#1A1F3D"/>
</g>
<defs>
<clipPath id="clip0_485_4069">
<rect width="61.605" height="35" fill="white"/>
</clipPath>
</defs>
</svg>
