<svg width="62" height="35" viewBox="0 0 62 35" fill="none" xmlns="http://www.w3.org/2000/svg">
<g clip-path="url(#clip0_485_3803)">
<path opacity="0.8" d="M43.938 27.8684C43.75 28.213 43.5307 28.5158 43.2802 28.8081C43.4577 28.4636 43.6874 28.1503 43.938 27.8684Z" fill="#1A1F3D"/>
<path opacity="0.8" d="M43.938 27.8684C43.75 28.213 43.5307 28.5158 43.2802 28.8081C43.4577 28.4636 43.6874 28.1503 43.938 27.8684Z" fill="#1A1F3D"/>
<path d="M39.5212 13.5739C39.5212 11.0784 41.5468 9.06321 44.0319 9.06321H44.7733V6.23355C44.7733 2.79829 41.9854 0.0104052 38.5501 0.0104052H6.22315C2.77745 -3.63147e-05 0 2.78785 0 6.22311V24.7464C0 28.1816 2.77745 30.9695 6.22315 30.9695H8.59337C8.59337 30.8964 8.59337 30.8234 8.59337 30.7503C8.59337 27.2001 11.4752 24.3287 15.0149 24.3287C18.5546 24.3287 21.4365 27.2106 21.4365 30.7503C21.4365 30.8234 21.4365 30.8964 21.4365 30.9695H38.5606C39.2915 30.9695 39.9806 30.8442 40.628 30.6145L40.7428 29.5286C39.991 28.7246 39.5212 27.6387 39.5212 26.4483V13.5531V13.5739Z" fill="#A064FF"/>
<path d="M61.4067 25.2372L57.9714 13.5949C57.1778 10.9009 54.7032 9.06323 51.9049 9.06323H44.7733V24.7464C45.4833 24.4749 46.2456 24.3392 47.0391 24.3392C50.5892 24.3392 53.4607 27.221 53.4607 30.7607C53.4607 30.8338 53.4607 30.9069 53.4607 30.98H57.2509C58.1489 30.98 58.9738 30.719 59.6734 30.27C61.3231 29.2154 61.9601 27.1166 61.4067 25.2372Z" fill="#6E0FF5"/>
<path d="M44.0319 9.06323C41.5468 9.06323 39.5211 11.0784 39.5211 13.574V26.4693C39.5211 27.6596 39.9805 28.7455 40.7428 29.5495C41.1604 27.3359 42.7162 25.5295 44.7836 24.7464V9.06323H44.0423H44.0319Z" fill="#6E0FF5"/>
<path d="M19.2542 30.7503C19.2542 30.8234 19.2542 30.8965 19.2542 30.9696C19.1393 33.2145 17.2911 34.9896 15.0149 34.9896C12.7386 34.9896 10.8905 33.2145 10.7756 30.9696C10.7756 30.8965 10.7756 30.8234 10.7756 30.7503C10.7756 28.4114 12.676 26.5006 15.0149 26.5006C17.3538 26.5006 19.2542 28.401 19.2542 30.7503Z" fill="#A064FF"/>
<path d="M40.6279 30.625C40.6279 30.2595 40.6697 29.8941 40.7428 29.5391Z" fill="#1A1F3D"/>
<path d="M43.938 27.8684C43.75 28.213 43.5307 28.5158 43.2802 28.8081C43.4577 28.4636 43.6874 28.1503 43.938 27.8684Z" fill="#1A1F3D"/>
<path d="M51.2888 30.7503C51.2888 30.8234 51.2888 30.8965 51.2888 30.9696C51.174 33.2145 49.3154 34.9896 47.0496 34.9896C44.7838 34.9896 42.8312 33.1205 42.8103 30.8025V30.7503C42.8103 30.0507 42.9774 29.3929 43.2802 28.8082C43.5308 28.5158 43.7605 28.213 43.938 27.8684C44.7107 27.0331 45.8175 26.5215 47.0391 26.5215C49.378 26.5215 51.2784 28.4218 51.2784 30.7712L51.2888 30.7503Z" fill="#6E0FF5"/>
<path opacity="0.8" d="M43.938 27.8684C43.75 28.213 43.5307 28.5158 43.2802 28.8081C43.4577 28.4636 43.6874 28.1503 43.938 27.8684Z" fill="#1A1F3D"/>
</g>
<defs>
<clipPath id="clip0_485_3803">
<rect width="61.605" height="35" fill="white"/>
</clipPath>
</defs>
</svg>
