<?xml version="1.0" encoding="UTF-8"?><svg xmlns="http://www.w3.org/2000/svg" width="1970.66" height="319.64" viewBox="0 0 1970.66 319.64"><g isolation="isolate"><g id="j"><g opacity=".05"><path d="m1388.41,108.76h-66.32c-14.65,0-26.53,11.88-26.53,26.53v184.36h119.37v-184.36c0-14.65-11.88-26.53-26.53-26.53Z" fill="#2654d3" mix-blend-mode="multiply"/><path d="m1812.83,164.46h-100.8c-14.65,0-26.53,11.88-26.53,26.53v128.65h153.85v-128.65c0-14.65-11.88-26.53-26.53-26.53Z" fill="#2654d3" mix-blend-mode="multiply"/><path d="m1603.27,135.28h-35.81c-14.65,0-26.53,11.88-26.53,26.53v157.83h88.86v-157.83c0-14.65-11.88-26.53-26.53-26.53Z" fill="#2654d3" mix-blend-mode="multiply"/><path d="m1559.5,173.75h-80.91c-14.65,0-26.53,11.88-26.53,26.53v119.37h133.96v-119.37c0-14.65-11.88-26.53-26.53-26.53Z" fill="#2654d3" mix-blend-mode="multiply"/><path d="m1470.64,49.07h-66.32c-14.65,0-26.53,11.88-26.53,26.53v244.04h119.37V75.6c0-14.65-11.88-26.53-26.53-26.53Z" fill="#2654d3" mix-blend-mode="multiply"/><path d="m1716.01,0h-70.3c-14.65,0-26.53,11.88-26.53,26.53v293.12h123.35V26.53c0-14.65-11.88-26.53-26.53-26.53Z" fill="#2654d3" mix-blend-mode="multiply"/><path d="m1896.39,104.78h-92.84c-14.65,0-26.53,11.88-26.53,26.53v188.34h145.9v-188.34c0-14.65-11.88-26.53-26.53-26.53Z" fill="#2654d3" mix-blend-mode="multiply"/><path d="m1925.57,41.12h-68.97c-14.65,0-26.53,11.88-26.53,26.53v252h122.02V67.64c0-14.65-11.88-26.53-26.53-26.53Z" fill="#2654d3" mix-blend-mode="multiply"/></g><g opacity=".05"><path d="m1803.55,126h66.32c14.65,0,26.53,11.88,26.53,26.53v167.12h-119.37v-167.12c0-14.65,11.88-26.53,26.53-26.53Z" fill="#2654d3" mix-blend-mode="multiply"/><path d="m1379.12,181.71h100.8c14.65,0,26.53,11.88,26.53,26.53v111.41h-153.85v-111.41c0-14.65,11.88-26.53,26.53-26.53Z" fill="#2654d3" mix-blend-mode="multiply"/><path d="m1588.68,152.53h35.81c14.65,0,26.53,11.88,26.53,26.53v140.59h-88.86v-140.59c0-14.65,11.88-26.53,26.53-26.53Z" fill="#2654d3" mix-blend-mode="multiply"/><path d="m1632.45,190.99h80.91c14.65,0,26.53,11.88,26.53,26.53v102.13h-133.96v-102.13c0-14.65,11.88-26.53,26.53-26.53Z" fill="#2654d3" mix-blend-mode="multiply"/><path d="m1721.32,66.32h66.32c14.65,0,26.53,11.88,26.53,26.53v226.8h-119.37V92.84c0-14.65,11.88-26.53,26.53-26.53Z" fill="#2654d3" mix-blend-mode="multiply"/><path d="m1475.95,17.24h70.3c14.65,0,26.53,11.88,26.53,26.53v275.87h-123.35V43.77c0-14.65,11.88-26.53,26.53-26.53Z" fill="#2654d3" mix-blend-mode="multiply"/><path d="m1295.57,122.02h92.84c14.65,0,26.53,11.88,26.53,26.53v171.1h-145.9v-171.1c0-14.65,11.88-26.53,26.53-26.53Z" fill="#2654d3" mix-blend-mode="multiply"/><path d="m1851.3,198.36h92.84c14.65,0,26.53,11.88,26.53,26.53v94.76h-145.9v-94.76c0-14.65,11.88-26.53,26.53-26.53Z" fill="#2654d3" mix-blend-mode="multiply"/><path d="m1266.39,58.36h68.97c14.65,0,26.53,11.88,26.53,26.53v234.76h-122.02V84.88c0-14.65,11.88-26.53,26.53-26.53Z" fill="#2654d3" mix-blend-mode="multiply"/></g><g opacity=".05"><path d="m563.69,126h66.32c14.65,0,26.53,11.88,26.53,26.53v167.12h-119.37v-167.12c0-14.65,11.88-26.53,26.53-26.53Z" fill="#2654d3" mix-blend-mode="multiply"/><path d="m139.26,181.71h100.8c14.65,0,26.53,11.88,26.53,26.53v111.41H112.74v-111.41c0-14.65,11.88-26.53,26.53-26.53Z" fill="#2654d3" mix-blend-mode="multiply"/><path d="m348.82,152.53h35.81c14.65,0,26.53,11.88,26.53,26.53v140.59h-88.86v-140.59c0-14.65,11.88-26.53,26.53-26.53Z" fill="#2654d3" mix-blend-mode="multiply"/><path d="m392.59,190.99h80.91c14.65,0,26.53,11.88,26.53,26.53v102.13h-133.96v-102.13c0-14.65,11.88-26.53,26.53-26.53Z" fill="#2654d3" mix-blend-mode="multiply"/><path d="m481.45,66.32h66.32c14.65,0,26.53,11.88,26.53,26.53v226.8h-119.37V92.84c0-14.65,11.88-26.53,26.53-26.53Z" fill="#2654d3" mix-blend-mode="multiply"/><path d="m236.09,17.24h70.3c14.65,0,26.53,11.88,26.53,26.53v275.87h-123.35V43.77c0-14.65,11.88-26.53,26.53-26.53Z" fill="#2654d3" mix-blend-mode="multiply"/><path d="m55.71,122.02h92.84c14.65,0,26.53,11.88,26.53,26.53v171.1H29.18v-171.1c0-14.65,11.88-26.53,26.53-26.53Z" fill="#2654d3" mix-blend-mode="multiply"/><path d="m611.43,198.36h92.84c14.65,0,26.53,11.88,26.53,26.53v94.76h-145.9v-94.76c0-14.65,11.88-26.53,26.53-26.53Z" fill="#2654d3" mix-blend-mode="multiply"/><path d="m26.53,58.36h68.97c14.65,0,26.53,11.88,26.53,26.53v234.76H0V84.88c0-14.65,11.88-26.53,26.53-26.53Z" fill="#2654d3" mix-blend-mode="multiply"/></g><g opacity=".05"><path d="m696.51,126h-66.32c-14.65,0-26.53,11.88-26.53,26.53v167.12h119.37s0-167.12,0-167.12c0-14.65-11.88-26.53-26.53-26.53Z" fill="#2654d3" mix-blend-mode="multiply"/><path d="m1120.94,181.71h-100.8c-14.65,0-26.53,11.88-26.53,26.53v111.41h153.85v-111.41c0-14.65-11.88-26.53-26.53-26.53Z" fill="#2654d3" mix-blend-mode="multiply"/><path d="m911.38,152.53h-35.81c-14.65,0-26.53,11.88-26.53,26.53v140.59h88.86v-140.59c0-14.65-11.88-26.53-26.53-26.53Z" fill="#2654d3" mix-blend-mode="multiply"/><path d="m972.76,190.99h-80.91c-14.65,0-26.53,11.88-26.53,26.53v102.13h133.96s0-102.13,0-102.13c0-14.65-11.88-26.53-26.53-26.53Z" fill="#2654d3" mix-blend-mode="multiply"/><path d="m789.69,90.91h-69.2c-13.94,0-25.24,11.3-25.24,25.24v203.5h119.68s0-203.5,0-203.5c0-13.94-11.3-25.24-25.24-25.24Z" fill="#2654d3" mix-blend-mode="multiply"/><path d="m1023.16,52.74h-95.06c-15.18,0-27.48,12.31-27.48,27.48v239.42h150.03s0-239.42,0-239.42c0-15.18-12.31-27.48-27.48-27.48Z" fill="#2654d3" mix-blend-mode="multiply"/><path d="m1175.8,103.37h-65.99c-13.63,0-24.67,11.05-24.67,24.67v191.6h115.34v-191.6c0-13.63-11.05-24.67-24.67-24.67Z" fill="#2654d3" mix-blend-mode="multiply"/><path d="m852.05,198.36h-92.84c-14.65,0-26.53,11.88-26.53,26.53v94.76h145.9v-94.76c0-14.65-11.88-26.53-26.53-26.53Z" fill="#2654d3" mix-blend-mode="multiply"/><path d="m1239.99,168.01h-81.61c-11.16,0-20.21,9.05-20.21,20.21v131.42h122.02v-131.42c0-11.16-9.05-20.21-20.21-20.21Z" fill="#2654d3" mix-blend-mode="multiply"/></g></g></g></svg>