<?xml version="1.0" encoding="UTF-8"?><svg xmlns="http://www.w3.org/2000/svg" width="448.67" height="314.97" viewBox="0 0 448.67 314.97"><g isolation="isolate"><g id="j"><path d="m399.45,310.79c-30.89.26-21.87-5.87-1.62-5.1l1.62,5.1Z" fill="#2d0282" mix-blend-mode="multiply" opacity=".3"/><path d="m428.69,301.61l-1.3-5.71c-10.99-.42-69.37,1.65-69.25,3.34.01.17.84.34,2.31.5l-236.91-4.51c-103.33-1.3-108.63-.72-110.86,6.49-2.87,9.31,62.94,15.91,112.68,12.2,43.32-3.23,220.57-5.91,242.83-13.64,16.88.87,50.11,1.42,60.51,1.33Z" fill="#2d0282" mix-blend-mode="multiply" opacity=".3"/><path d="m105.14,147.54s3.94,4.56-10.61,11.96c-14.55,7.4-14.37,1.24-14.37,1.24,0,0,19.02-15.04,20.05-14.79s4.93,1.59,4.93,1.59Z" fill="#1a1f3d" stroke="#000" stroke-miterlimit="10" stroke-width=".52"/><path d="m97.16,141.22c7.13,15.65,15.68,42.21,21.23,49.35,5.93,3.68,28.29,11.16,59.6,19.94l-15.95,9.63s-58.21,9.5-76.7-11.81c-18.48-21.31-35.59-55.22-35.59-55.22,0,0,43.75-15.89,43.62-15.27s3.8,3.38,3.8,3.38Z" fill="#fd9e73"/><path d="m33.17,123.84c-1.1,40.08,12.52,62.95,12.52,62.95,0,0,10.68-.34,18.63-4.37,0,0,7.69,2.11,13.31,11.01,5.62,8.9-44.46-69.58-44.46-69.58Z" fill="#2d0282" mix-blend-mode="multiply" opacity=".3"/><path d="m101.33,150.56c-15.65,10.63-26.18,36.47-22.13,50.72-3.82-5.47-13.23-19.03-15.41-23.9-1.23-2.75,29.46-42.9,29.46-42.9l8.08,16.08Z" fill="#ed8758"/><path d="m85.33,208.33c-18.48-21.31-35.59-55.22-35.59-55.22,0,0,43.75-15.89,43.62-15.27s3.8,3.38,3.8,3.38c7.13,15.65,16.08,42.29,21.63,49.44" fill="none" stroke="#000" stroke-miterlimit="10" stroke-width=".52"/><path d="m31.57,119.9s3.72,37.14,22.67,60.55c0,0,14.91.17,28.57-16.56,13.66-16.74,19.18-16.86,22.34-16.34,0,0-21.27-37.15-26.16-51-4.89-13.85-1.97-15.05-21.82-15.78s-25.6,39.14-25.6,39.14Z" fill="#6e0ff5"/><path d="m31.57,119.9s3.72,37.14,22.67,60.55c0,0,14.91.17,28.57-16.56,13.66-16.74,19.18-16.86,22.34-16.34,0,0-21.27-37.15-26.16-51-4.89-13.85-1.97-15.05-21.82-15.78s-25.6,39.14-25.6,39.14Z" fill="#2d0282" mix-blend-mode="multiply" opacity=".3"/><path d="m31.59,119.91s3.72,37.14,22.67,60.55c0,0,14.91.17,28.57-16.56,13.66-16.74,19.18-16.86,22.34-16.34,0,0-21.27-37.15-26.16-51" fill="none" stroke="#000" stroke-miterlimit="10" stroke-width=".52"/><path d="m160.62,220.35s7.1-1.33,15.87-.38,14.6-.06,15.15-1.46c.55-1.4-.96-2.97-6.74-3.72-5.78-.76-19.32-5.05-19.32-5.05l-4.95,10.61Z" fill="#fd9e73"/><path d="m163.83,208.77c4.6,2.86,12.03,1.41,14.62,1.72s12.71,1.57,14.58,2.72.83,4.11-5.15,3.72c-5.97-.39-22.11-4.99-22.11-4.99l-1.94-3.16Z" fill="#fd9e73"/><path d="m192.14,214.87c1.48,1.18,1.47,2.64-.81,2.99s-6.5-1.15-6.5-1.15l7.32-1.84Z" fill="#fd9e73"/><path d="m359.9,299.18l39.63-3.72s9.78-13.24,10.51-24.09c.73-10.85-11.74-12.46-11.74-12.46,0,0-33.43-5.91-33.76-5.55s-4.65,45.82-4.65,45.82Z" fill="#fd9e73"/><path d="m377.79,297.48c-4.64-2.22-.33-20.73-1.23-31.74-.9-11.02-1.16-10.85-1.16-10.85l-4.47-.6-8.95,44.87,15.81-1.68Z" fill="#ed8758"/><path d="m384.07,297.03s13.09-18.81,4.99-39.84l16.52,3s12.95,11.19,13.2,11.63-7.87,17.28-7.87,17.28l-11.39,6.36-15.46,1.57Z" fill="#fff"/><path d="m406.62,269.64s-5.52,3.76-8.8-5.81c-4.2-12.23,9.24-1.59,20.86-24.52l11.19,2.1-2.57,22.55-16.11,9.58-4.57-3.89Z" fill="#f55364"/><path d="m438.67,227.51c5.75,1.59,7.41,4.3,3.54,20.85l-11.45,48.94c-1.03,4.4-6.28,3.86-12.64,2.55-5.64-1.16-12.15-2.92-17.33-2.37-5,.53.85-24.75,9.96-32.94,9.11-8.19,17.12-21.71,7.93-25.22,0,0,5.63-15.16,15.12-12.94,1.85.43,3.48.75,4.87,1.13Z" fill="#f55364"/><path d="m406.67,269.45s-5.49,3.63-8.85-5.61c-4.42-12.16,9.24-1.59,20.86-24.52" fill="none" stroke="#1a1f3d" stroke-miterlimit="10" stroke-width=".52"/><path d="m438.67,227.51c5.75,1.59,7.41,4.3,3.54,20.85l-11.45,48.94c-1.03,4.4-6.28,3.86-12.64,2.55-5.64-1.16-12.15-2.92-17.33-2.37-5,.53.49-24.08,9.6-32.28,9.11-8.19,17.48-22.38,8.29-25.89,0,0,5.63-15.16,15.12-12.94,1.85.43,3.48.75,4.87,1.13Z" fill="none" stroke="#1a1f3d" stroke-miterlimit="10" stroke-width=".52"/><path d="m438.67,227.51c5.75,1.59,7.41,4.3,3.54,20.85l-11.45,48.94c-1.03,4.4-6.28,3.86-12.64,2.55l20.49-72.25s.01-.03.06-.09Z" fill="#1a1f3d"/><circle cx="412.44" cy="268.31" r="1.86" fill="none" stroke="#1a1f3d" stroke-miterlimit="10" stroke-width=".52"/><circle cx="418.25" cy="262.31" r="1.86" fill="none" stroke="#1a1f3d" stroke-miterlimit="10" stroke-width=".52"/><circle cx="423.04" cy="255.14" r="1.86" fill="none" stroke="#1a1f3d" stroke-miterlimit="10" stroke-width=".52"/><line x1="412.41" y1="268.2" x2="401.46" y2="253.5" fill="none" stroke="#fff" stroke-linecap="round" stroke-miterlimit="10" stroke-width="1.56"/><line x1="418.13" y1="262.45" x2="407.06" y2="247.95" fill="none" stroke="#fff" stroke-linecap="round" stroke-miterlimit="10" stroke-width="1.56"/><line x1="422.78" y1="254.8" x2="411.84" y2="240.34" fill="none" stroke="#fff" stroke-linecap="round" stroke-miterlimit="10" stroke-width="1.56"/><path d="m78.99,308.23c32.52,8.24,284.88-8.11,284.88-8.11,0,0,17.68-20.63,10.2-55.88l-272.28-27.08-13.57,54.17-9.24,36.89Z" fill="#1a1f3d"/><path d="m78.99,308.23c32.52,8.24,284.88-8.11,284.88-8.11,0,0,17.68-20.63,10.2-55.88l-272.28-27.08-13.57,54.17-9.24,36.89Z" fill="#2d0282" mix-blend-mode="multiply" opacity=".3"/><path d="m276.83,238.33l97.25,5.91s4.02,14.58.57,30.47" fill="none" stroke="#000" stroke-miterlimit="10" stroke-width=".52"/><path d="m338.3,286.74l38.28,4.03s13.91-6.4,17.66-16.6c3.76-10.21,1.04-13.5,1.04-13.5,0,0-39.22-16.85-39.63-16.59s-17.36,42.66-17.36,42.66Z" fill="#fd9e73"/><path d="m364.16,289.55c-3.83-3.43-3.78-9.41-1.53-20.24,2.24-10.83,1.07-21.93,1.07-21.93l-8.74-3.68-12.11,43.54,21.31,2.3Z" fill="#ed8758"/><path d="m360.79,289.24s18.82-13.77,16.97-36.24l20.24,8.48s4.41,15.08,4.52,15.58-12.42,14.37-12.42,14.37l-13.67-.81-15.64-1.38Z" fill="#fff"/><path d="m396.1,272.57s-6.68.06-4.1-9.72c3.3-12.51,8.56,3.8,30.96-8.81l8.14,7.96-14.65,17.33-18.71-.98-1.64-5.77Z" fill="#f55364"/><path d="m446.15,255.32c3.9,4.51,3.78,7.69-8.64,19.31l-36.7,34.34c-3.3,3.09-7.37-.28-11.93-4.89-4.05-4.1-8.48-9.18-13.09-11.59-4.46-2.33,14.45-20.11,26.58-21.87,12.12-1.75,26.3-8.55,20.6-16.58,0,0,13.1-9.48,19.76-2.36,1.3,1.39,2.48,2.56,3.42,3.65Z" fill="#f55364"/><path d="m396.25,272.43s-6.58-.03-4.24-9.58c3.07-12.57,8.56,3.8,30.96-8.81" fill="none" stroke="#1a1f3d" stroke-miterlimit="10" stroke-width=".52"/><path d="m446.15,255.32c3.9,4.51,3.78,7.69-8.64,19.31l-36.7,34.34c-3.3,3.09-7.37-.28-11.93-4.89-4.05-4.1-8.48-9.18-13.09-11.59-4.46-2.33,13.78-19.76,25.91-21.51,12.12-1.75,26.97-8.91,21.27-16.93,0,0,13.1-9.48,19.76-2.36,1.3,1.39,2.48,2.56,3.42,3.65Z" fill="none" stroke="#1a1f3d" stroke-miterlimit="10" stroke-width=".52"/><path d="m446.15,255.32c3.9,4.51,3.78,7.69-8.64,19.31l-36.7,34.34c-3.3,3.09-7.37-.28-11.93-4.89l57.16-48.71s.03-.02.1-.04Z" fill="#1a1f3d"/><circle cx="401.69" cy="274.69" r="1.86" fill="none" stroke="#1a1f3d" stroke-miterlimit="10" stroke-width=".52"/><circle cx="409.85" cy="272.93" r="1.86" fill="none" stroke="#1a1f3d" stroke-miterlimit="10" stroke-width=".52"/><circle cx="417.82" cy="269.62" r="1.86" fill="none" stroke="#1a1f3d" stroke-miterlimit="10" stroke-width=".52"/><line x1="401.72" y1="274.59" x2="401.06" y2="257.66" fill="none" stroke="#fff" stroke-linecap="round" stroke-miterlimit="10" stroke-width="1.56"/><line x1="409.67" y1="272.97" x2="408.83" y2="258.07" fill="none" stroke="#fff" stroke-linecap="round" stroke-miterlimit="10" stroke-width="1.56"/><line x1="417.78" y1="269.2" x2="416.81" y2="256.33" fill="none" stroke="#fff" stroke-linecap="round" stroke-miterlimit="10" stroke-width="1.56"/><path d="m26.39,273.81c6.54,29.85,61.53,39.01,84.23,38.94,26.65-.09,71.86-12.77,106.2-32.7,62.86,15.33,131.96,18.67,131.96,18.67,0,0,17.68-20.63,10.2-55.88,0,0-93.41-41.29-142.47-41.29s-129.81,14.22-129.81,14.22l-50.5,11.03-9.81,47.02Z" fill="#1a1f3d"/><path d="m200.73,204.61c-41.86,6.59-76.05,23-93.38,27.6-17.33,4.6-37.72,51.52-33.42,75.44,0,0-28.98-5.37-42.16-22.69-13.19-17.33,43.39-74.82,43.39-74.82l52.13-2.15,56.58-4.6,16-.38.87,1.61Z" fill="#2d0282" mix-blend-mode="multiply" opacity=".3"/><path d="m43.72,58.22l26.87,22.48s23.3,25.05,25.55,77.35,15.6,54.3,15.6,54.3c0,0-78.61,102.8-110.6,78.53,0,0,1.26-19.93,2.14-45.76,1.11-32.69-4-75.61-2.53-94.22,2.63-33.3,10.66-74.93,42.96-92.68Z" fill="#6e0ff5"/><path d="m43.72,58.22c-.21-.34,5.04-5.45,8.63-22.08,3.59-16.63,13.17,11.04,13.17,11.04l5.07,33.52s-9.45,6.25-26.87-22.48Z" fill="#fd9e73"/><path d="m65.52,47.18l.03,1.32s-9.57-4.18-17.87.86c0,0,3.45-6.84,3.99-10.63s13.85,8.44,13.85,8.44Z" fill="#ed8758"/><path d="m70.59,80.7s9.03,9.71,16.39,29.67" fill="none" stroke="#000" stroke-miterlimit="10" stroke-width=".52"/><path d="m.76,150.91c2.63-33.3,10.66-74.93,42.96-92.68,0,0,3.39,5.75,7.82,11.42" fill="none" stroke="#000" stroke-miterlimit="10" stroke-width=".52"/><path d="m72.98,6.62c9.22,14.52,14,24.24,11.58,33.93-2.04,8.18-33.92,6.09-34.55-2.25-.63-8.34-2.16-25.62,8.19-30.17,10.36-4.55,14.78-1.52,14.78-1.52Z" fill="#fd9e73"/><path d="m50.11,39.53c3.43,0,7.44-17.48,12.29-19.95,4.85-2.47,12.98-2.8,16.64-9.38,3.66-6.59-2.76-9.71-6.03-10.02-3.27-.31-13.03-1.01-21.47,6.24-11.55,9.92-4.63,33.12-1.43,33.12Z" fill="#f55364"/><path d="m57.57,32.08s-6.57-2.35-6.31-6.9,4.67-6.06,8.59-2.9" fill="#fd9e73"/><path d="m81.55,23.3s.07.09.13.17c.36.56,1.19,2.19,1.69,3.36.57,1.34,5.1,2.19,1.95,4.96-3.15,2.77-5.25-.52-5.25-.52" fill="#fd9e73"/><circle cx="69.37" cy="32.78" r="4.94" fill="#fff"/><path d="m84.96,36.5s-2.83,1.03-5.05-.66" fill="none" stroke="#000" stroke-linecap="round" stroke-miterlimit="10" stroke-width=".52"/><path d="m74.69,25.96s-4.5.98-7.24-2.3" fill="none" stroke="#000" stroke-linecap="round" stroke-miterlimit="10" stroke-width=".52"/><path d="m57.29,24.12s-1.68-.84-2.61.58c-1.2,1.83,1.95,3.63,1.95,3.63" fill="none" stroke="#000" stroke-linecap="round" stroke-miterlimit="10" stroke-width=".52"/><path d="m44.59,31.02c-2.52-14.95.65-22.39,6.36-26.25" fill="none" stroke="#000" stroke-linecap="round" stroke-miterlimit="10" stroke-width=".52"/><path d="m121.72,204.18h83.1c0,2.03-1.65,3.68-3.68,3.68h-75.74c-2.03,0-3.68-1.65-3.68-3.68h0Z" transform="translate(-21.37 18.91) rotate(-6.22)" fill="#f55364"/><path d="m173.33,161.15h75.74c2.03,0,3.68,1.65,3.68,3.68h-83.1c0-2.03,1.65-3.68,3.68-3.68Z" transform="translate(418.39 -5.07) rotate(103.3)" fill="#f55364"/><path d="m91.76,142.21s4.44,4.07-9.14,13.12c-13.59,9.05-14.13,2.9-14.13,2.9,0,0,17.14-17.16,18.19-17.02s5.08,1,5.08,1Z" fill="#1a1f3d" stroke="#000" stroke-miterlimit="10" stroke-width=".52"/><path d="m83.08,136.86c8.9,14.71,20.49,40.09,26.84,46.54,6.32,2.96,29.4,7.79,61.52,12.85l-14.72,11.42s-56.71,16.23-77.55-2.78c-20.84-19.01-41.79-50.69-41.79-50.69,0,0,41.6-20.88,41.54-20.26-.06.63,4.17,2.91,4.17,2.91Z" fill="#fd9e73"/><path d="m17.51,127.07c3.58,39.94,19.78,61.06,19.78,61.06,0,0,8.46.26,15.89-4.68,0,0,8.92,2.45,15.54,10.63,6.62,8.18-51.2-67.01-51.2-67.01Z" fill="#2d0282" mix-blend-mode="multiply" opacity=".3"/><path d="m88.32,145.65c-14.3,12.39-21.74,39.27-16.06,52.96-4.43-4.99-15.36-17.35-18.09-21.94-1.54-2.59,24.25-46.04,24.25-46.04l9.9,15.02Z" fill="#ed8758"/><path d="m79.17,204.89c-20.84-19.01-41.79-50.69-41.79-50.69,0,0,41.6-20.88,41.54-20.26-.06.63,4.17,2.91,4.17,2.91,8.9,14.71,20.9,40.13,27.25,46.58" fill="none" stroke="#000" stroke-miterlimit="10" stroke-width=".52"/><path d="m15.46,123.34s8.02,36.45,29.58,57.49c0,0,14.83-1.57,26.44-19.78,11.62-18.22,17.08-18.98,20.28-18.84,0,0-25.46-34.42-31.93-47.6-6.48-13.18-3.72-14.72-23.51-13.13s-20.86,41.86-20.86,41.86Z" fill="#6e0ff5"/><path d="m15.48,123.34s8.02,36.45,29.58,57.49c0,0,14.83-1.57,26.44-19.78,11.62-18.22,17.08-18.98,20.28-18.84,0,0-25.46-34.42-31.93-47.6" fill="none" stroke="#000" stroke-miterlimit="10" stroke-width=".52"/><path d="m155.34,208.06s6.9-2.15,15.72-2.22,14.49-1.76,14.87-3.22-1.3-2.84-7.13-2.91-19.78-2.76-19.78-2.76l-3.68,11.12Z" fill="#fd9e73"/><path d="m157.18,196.17c4.91,2.3,12.11,0,14.72,0s12.8.08,14.8,1,1.3,3.99-4.68,4.29-22.54-2.38-22.54-2.38l-2.3-2.91Z" fill="#fd9e73"/><circle cx="56.75" cy="25.11" r="7.87"/><path d="m57.72,1.44l-2.68,1.45c-.75.31-1.25,1.04-1.25,1.85v14.75h5.93V2.78c0-1.03-1.04-1.73-2-1.34Z"/><circle cx="56.75" cy="25.11" r="5.72" fill="#f55364"/><circle cx="56.75" cy="25.11" r="4.96"/><path d="m156.95,193.95c4.75,1,11.12,1.3,15.79.69,4.68-.61,11.29-2.42,13.44-2.06,1.94.33,9.04,5.04,10.43,5.97.16.1.27.25.34.43h0c.28.77-.09,1.62-.85,1.93l-.15.06.06.21c.08.26.12.56.11.85-.05,1-1.39,1.3-1.9.44l.27.48c.11.19.16.41.15.64l-.02.43c-.03.48-.34.89-.8,1.04h0c-.43.14-.91.02-1.22-.32-.9-.99-2.84-2.97-4.16-3.19-1.17-.19-3.12-.22-4.3-.22-.6,0-1.13.37-1.35.93h0c.78.06,6.3-.79,8.23.23.6.31,1.04.88,1.12,1.55.07.6-.23,1.23-1.43.96-2.56-.6-7.24.97-7.24.97,0,0-2.04.17-3.91.41-2.6.33-3.35.12-5.31.18s-2.93-.21-2.93-.21l-3.66-.37s-15.46-13.02-10.71-12.03Z" fill="#fd9e73"/><path d="m182.75,197.77s.74-.2,1.97-.27c1.21-.08,2.94.06,4.66.79,1.72.73,3.02,1.88,3.8,2.82.79.94,1.13,1.63,1.16,1.61.01,0-.07-.18-.23-.48-.17-.3-.44-.73-.82-1.21-.76-.97-2.07-2.16-3.83-2.91-1.76-.75-3.52-.87-4.75-.75-.62.06-1.11.16-1.45.25-.33.09-.51.16-.51.17Z" fill="#fd9e73"/><path d="m183.86,195.23s.76-.32,2.05-.36c1.28-.06,3.08.33,4.76,1.35,1.68,1.02,2.94,2.32,3.84,3.25.42.45.78.83,1.05,1.12.25.26.39.41.4.4.01,0-.11-.17-.34-.45-.23-.28-.57-.68-1.01-1.16-.87-.95-2.13-2.28-3.84-3.32-1.71-1.04-3.56-1.41-4.87-1.32-.65.04-1.17.16-1.52.28-.18.05-.3.12-.39.15-.09.04-.13.06-.13.07Z" fill="#fd9e73"/><path d="m105.86,312.69c27.65,0,71.52-9.21,110.72-32.65,0,0,83.16,17.36,131.96,18.67,0,0,6.35-5.3,11.42-26.92" fill="none" stroke="#000" stroke-miterlimit="10" stroke-width=".52"/><path d="m3.19,221.37c.58,34.27-1.95,69.51-1.95,69.51,0,0,13.05,16.16,52.18-16.75,39.14-32.91,56.86-59.97,56.86-59.97" fill="none" stroke="#000" stroke-miterlimit="10" stroke-width=".52"/><path d="m149.22,192.55c17.39,3.38,21.35,2.27,23.89,2.08s9.95-2.58,13.17-2.04c2.15.36,4.22,2.24,8.31,4.58" fill="none" stroke="#000" stroke-miterlimit="10" stroke-width=".52"/><path d="m205.24,179.31l13.56-57.18s3.49.93,2.73,4.43c-.75,3.49-5.85,24.75-5.85,24.75" fill="none" stroke="#000" stroke-miterlimit="10" stroke-width=".52"/></g></g></svg>