<?xml version="1.0" encoding="UTF-8"?><svg xmlns="http://www.w3.org/2000/svg" viewBox="0 0 61.6 48.33"><defs><style>.cls-1{opacity:.52;}.cls-2{isolation:isolate;}.cls-3{opacity:.8;}.cls-4{fill:#6e0ff5;}.cls-5{mix-blend-mode:multiply;}</style></defs><g class="cls-2"><g id="Layer_1"><g class="cls-1"><g class="cls-3"><path class="cls-4" d="m60.8,41.16v1.71c0,2.67-2.16,4.83-4.83,4.83h-14.91c-2.67,0-4.83-2.16-4.83-4.83v-1.71c0-2.92,1.3-5.55,3.36-7.31.98-.84,2.42-.8,3.42.02,1.5,1.22,3.42,1.95,5.5,1.95s4-.73,5.5-1.94c1.01-.81,2.44-.86,3.42-.01,2.06,1.76,3.36,4.38,3.36,7.31Z"/></g><g class="cls-3"><path class="cls-4" d="m55.69,25.61c0,2.03-.84,3.86-2.2,5.16-1.29,1.25-3.05,2.01-4.98,2.01s-3.69-.77-4.97-2.01c-1.36-1.3-2.2-3.14-2.2-5.16,0-3.96,3.22-7.18,7.18-7.18s7.18,3.22,7.18,7.18Z"/></g></g><g class="cls-3"><path class="cls-4" d="m51.43,39.37v2.18c0,3.4-2.75,6.15-6.15,6.15h-18.99c-3.4,0-6.15-2.75-6.15-6.15v-2.18c0-3.72,1.66-7.06,4.28-9.31,1.25-1.07,3.08-1.02,4.36.02,1.91,1.55,4.35,2.48,7.01,2.48s5.09-.93,7.01-2.48c1.28-1.04,3.11-1.09,4.36-.02,2.62,2.25,4.28,5.58,4.28,9.31Z"/></g><g class="cls-3"><path class="cls-4" d="m44.92,19.56c0,2.58-1.08,4.91-2.8,6.57-1.64,1.59-3.88,2.57-6.34,2.57s-4.7-.98-6.34-2.57c-1.73-1.66-2.81-3.99-2.81-6.57,0-5.04,4.11-9.14,9.14-9.14s9.14,4.1,9.14,9.14Z"/></g><g class="cls-5"><path class="cls-4" d="m40.31,37.19v2.75c0,4.29-3.48,7.76-7.76,7.76H8.56c-4.29,0-7.76-3.48-7.76-7.76v-2.75c0-4.7,2.09-8.92,5.4-11.76,1.58-1.36,3.89-1.28,5.5.03,2.42,1.96,5.5,3.13,8.84,3.13s6.43-1.17,8.85-3.13c1.62-1.31,3.93-1.38,5.5-.02,3.31,2.84,5.4,7.05,5.4,11.75Z"/></g><g class="cls-5"><path class="cls-4" d="m32.09,12.17c0,3.26-1.36,6.21-3.53,8.3-2.07,2.01-4.9,3.24-8.01,3.24s-5.93-1.23-8-3.24c-2.18-2.1-3.54-5.04-3.54-8.3C9.01,5.8,14.19.63,20.55.63s11.54,5.18,11.54,11.54Z"/></g></g></g></svg>