<?xml version="1.0" encoding="UTF-8"?><svg id="Layer_1" xmlns="http://www.w3.org/2000/svg" viewBox="0 0 48.68 48.68"><defs><style>.cls-1{fill:#fff;}.cls-2{fill:none;stroke:#6e0ff5;stroke-linecap:round;stroke-linejoin:round;stroke-width:4px;}.cls-3{opacity:.8;}.cls-4{opacity:.3;}</style></defs><g class="cls-3"><path class="cls-1" d="m37.81,43.55H5.74c-3.17,0-5.74-2.1-5.74-4.68V4.68C0,2.1,2.57,0,5.74,0h32.08c3.17,0,5.74,2.1,5.74,4.68v34.19c0,2.58-2.57,4.68-5.74,4.68Z"/></g><g class="cls-4"><path class="cls-1" d="m43.33,48.68H13.36c-2.96,0-5.36-1.96-5.36-4.37V12.38c0-2.41,2.4-4.37,5.36-4.37h29.96c2.96,0,5.36,1.96,5.36,4.37v31.94c0,2.41-2.4,4.37-5.36,4.37Z"/></g><line class="cls-2" x1="10" y1="34.39" x2="10" y2="25.67"/><line class="cls-2" x1="21.83" y1="34.39" x2="21.83" y2="18.66"/><line class="cls-2" x1="33.66" y1="34.39" x2="33.66" y2="12.66"/></svg>