<?xml version="1.0" encoding="UTF-8"?><svg id="Layer_1" xmlns="http://www.w3.org/2000/svg" viewBox="0 0 60 45.12"><defs><style>.cls-1{fill:#fff;}.cls-2{fill:#1a1f3d;}</style></defs><path class="cls-2" d="m58.82,25.25l-5.24-8.09c-1.36-2.09-3.67-3.36-6.17-3.36h-6.32v-6.44c0-4.05-3.29-7.36-7.35-7.36H7.35C3.3,0,0,3.31,0,7.36v25.04c0,4.05,3.3,7.36,7.35,7.36h45.3c4.05,0,7.35-3.31,7.35-7.36v-3.15c0-1.42-.41-2.8-1.18-4Zm-4.32,7.15c0,1.02-.83,1.85-1.85,1.85h-11c1.11.35,1.92,1.39,1.92,2.62,0,1.52-1.23,2.75-2.74,2.75s-2.74-1.23-2.74-2.75c0-1.23.81-2.27,1.92-2.62h-22.5c1.1.35,1.91,1.39,1.91,2.62,0,1.52-1.22,2.75-2.73,2.75s-2.74-1.23-2.74-2.75c0-1.23.81-2.27,1.92-2.62H7.35c-1.01,0-1.84-.83-1.84-1.85V7.36c0-1.02.83-1.85,1.84-1.85h26.39c1.02,0,1.84.83,1.84,1.85v11.95h11.83c.63,0,1.21.32,1.55.85l5.24,8.09c.2.3.3.65.3,1v3.15Z"/><path class="cls-1" d="m21.52,34.25c-.93-1.71-2.75-2.87-4.83-2.87s-3.9,1.16-4.84,2.87c-.42.78-.66,1.67-.66,2.62,0,1.06.3,2.06.83,2.89.96,1.57,2.69,2.61,4.67,2.61s3.71-1.04,4.67-2.61c.52-.83.82-1.83.82-2.89,0-.95-.24-1.84-.66-2.62Zm-4.83-.12c.28,0,.56.04.82.12,1.1.35,1.91,1.39,1.91,2.62,0,1.52-1.22,2.75-2.73,2.75s-2.74-1.23-2.74-2.75c0-1.23.81-2.27,1.92-2.62.26-.08.54-.12.82-.12Z"/><path class="cls-2" d="m24.5,34.25c-1.1-3.26-4.18-5.62-7.81-5.62s-6.73,2.36-7.82,5.62c-.28.82-.43,1.71-.43,2.62,0,1.01.18,1.99.52,2.89,1.17,3.13,4.19,5.36,7.73,5.36s6.54-2.23,7.72-5.36c.34-.9.52-1.88.52-2.89,0-.91-.15-1.8-.43-2.62Zm-5.08,2.62c0,1.52-1.22,2.75-2.73,2.75s-2.74-1.23-2.74-2.75c0-1.23.81-2.27,1.92-2.62.26-.08.54-.12.82-.12s.56.04.82.12c1.1.35,1.91,1.39,1.91,2.62Z"/><path class="cls-1" d="m45.66,34.25c-.93-1.71-2.74-2.87-4.83-2.87s-3.9,1.16-4.83,2.87c-.43.78-.67,1.67-.67,2.62,0,1.06.3,2.06.83,2.89.96,1.57,2.7,2.61,4.67,2.61s3.71-1.04,4.67-2.61c.52-.83.82-1.83.82-2.89,0-.95-.24-1.84-.66-2.62Zm-4.83-.12c.28,0,.56.04.82.12,1.11.35,1.92,1.39,1.92,2.62,0,1.52-1.23,2.75-2.74,2.75s-2.74-1.23-2.74-2.75c0-1.23.81-2.27,1.92-2.62.26-.08.54-.12.82-.12Z"/><path class="cls-2" d="m48.65,34.25c-1.1-3.26-4.19-5.62-7.82-5.62s-6.72,2.36-7.82,5.62c-.28.82-.43,1.71-.43,2.62,0,1.01.18,1.99.52,2.89,1.17,3.13,4.2,5.36,7.73,5.36s6.55-2.23,7.73-5.36c.34-.9.52-1.88.52-2.89,0-.91-.15-1.8-.43-2.62Zm-5.08,2.62c0,1.52-1.23,2.75-2.74,2.75s-2.74-1.23-2.74-2.75c0-1.23.81-2.27,1.92-2.62.26-.08.54-.12.82-.12s.56.04.82.12c1.11.35,1.92,1.39,1.92,2.62Z"/><path class="cls-2" d="m38.35,25.83c-1.52,0-2.75-1.23-2.75-2.75v-9.2c0-1.52,1.23-2.75,2.75-2.75s2.75,1.23,2.75,2.75v9.2c0,1.52-1.23,2.75-2.75,2.75Z"/></svg>