<?xml version="1.0" encoding="UTF-8"?><svg id="Layer_1" xmlns="http://www.w3.org/2000/svg" viewBox="0 0 59.88 65.69"><defs><style>.cls-1{fill:none;stroke:#1a1f3d;stroke-linecap:round;stroke-linejoin:round;stroke-width:5.69px;}.cls-2{fill:#1a1f3d;}</style></defs><g id="Document"><g id="Stroke-4"><path class="cls-1" d="m18.63,62.84c-9.44,0-15.79-6.47-15.79-16.09v-22.22c0-9.7,6.15-16.01,15.66-16.09h22.74c9.44,0,15.79,6.47,15.79,16.09v22.23c0,9.56-6.3,16.02-15.67,16.08h-22.73Z"/></g></g><line class="cls-1" x1="6.43" y1="28.43" x2="54.01" y2="28.43"/><line class="cls-1" x1="19.53" y1="14.49" x2="19.53" y2="2.84"/><line class="cls-1" x1="40.44" y1="14.49" x2="40.44" y2="2.84"/><rect class="cls-2" x="14.1" y="37.56" width="5.57" height="5.57" rx="1.55" ry="1.55"/><rect class="cls-2" x="14.1" y="47.26" width="5.57" height="5.57" rx="1.55" ry="1.55"/><rect class="cls-2" x="42.67" y="37.56" width="5.57" height="5.57" rx="1.55" ry="1.55"/><rect class="cls-2" x="28.39" y="37.56" width="5.57" height="5.57" rx="1.55" ry="1.55"/><rect class="cls-2" x="28.39" y="47.26" width="5.57" height="5.57" rx="1.55" ry="1.55"/></svg>