<?xml version="1.0" encoding="UTF-8"?><svg id="Layer_3" xmlns="http://www.w3.org/2000/svg" viewBox="0 0 60 60"><defs><style>.cls-1,.cls-2,.cls-3{fill:#fff;}.cls-2{opacity:.3;}.cls-4{fill:#6e0ff5;opacity:.77;}.cls-3{opacity:.8;}</style></defs><path class="cls-2" d="m57.77,6.96v30.63c0,.94-.76,1.71-1.71,1.71H15.96c-.94,0-1.71-.76-1.71-1.71V7.78h-.02c.01-.07.02-.14.02-.22v-1.2c-.3-3.29-3.07-5.86-6.43-5.86h43.49c3.57,0,6.46,2.89,6.46,6.46Z"/><path class="cls-3" d="m45.74,11.87v42.15h-.06V14.27h.04c-.03-.1-.03-.19-.04-.29v-1.59c.01-.17.04-.35.06-.52Z"/><path class="cls-3" d="m52.17.5c-2.73,0-5.06,1.69-6.01,4.09-.22.56-.36,1.16-.42,1.78v1.2c0,.08.01.15.03.22h-.03v4.1c-.03.17-.05.35-.06.52v1.59c0,.1.01.19.04.29h-.04v43.83s-.53-.04-.89.33c-.95.96-.84,1.07-2.18,1.07s-1.35-1.37-2.7-1.37-1.34,1.37-2.68,1.37-1.34-1.37-2.69-1.37-1.34,1.37-2.69,1.37-1.34-1.37-2.69-1.37-1.34,1.37-2.69,1.37-1.35-1.37-2.69-1.37-1.35,1.37-2.7,1.37-1.34-1.37-2.68-1.37-1.35,1.37-2.7,1.37-1.34-1.37-2.69-1.37-1.35,1.37-2.7,1.37-1.34-1.37-2.69-1.37-1.35,1.37-2.7,1.37-1.35-1.37-2.7-1.37V6.96C2.23,3.39,5.12.5,8.68.5h43.49Z"/><circle class="cls-4" cx="11.27" cy="17.85" r="2.62"/><rect class="cls-4" x="16.82" y="15.64" width="23.83" height="4.43" rx="2.21" ry="2.21"/><circle class="cls-1" cx="11.27" cy="29.08" r="2.62"/><rect class="cls-1" x="16.82" y="26.87" width="23.83" height="4.43" rx="2.21" ry="2.21"/><circle class="cls-1" cx="11.27" cy="40.31" r="2.62"/><rect class="cls-1" x="16.82" y="38.09" width="23.83" height="4.43" rx="2.21" ry="2.21"/></svg>