<?xml version="1.0" encoding="UTF-8"?><svg xmlns="http://www.w3.org/2000/svg" viewBox="0 0 60 60"><defs><style>.cls-1{isolation:isolate;}.cls-2{fill:#ff7ba7;}.cls-3{mix-blend-mode:multiply;opacity:.8;}.cls-4{fill:#6e0ff5;}</style></defs><g class="cls-1"><g id="Layer_3"><path class="cls-4" d="m15.11,47.39h-4.7c-5.46,0-9.91-4.44-9.91-9.91s4.44-9.91,9.91-9.91h30.82c1.18,0,2.13.95,2.13,2.13s-.95,2.13-2.13,2.13H10.41c-3.11,0-5.64,2.53-5.64,5.64s2.53,5.64,5.64,5.64h4.7c1.18,0,2.13.95,2.13,2.13s-.95,2.13-2.13,2.13Z"/><path class="cls-4" d="m30.65,44.77c-.55,0-1.09-.21-1.51-.63-.83-.83-.83-2.18,0-3.01l11.42-11.42-11.42-11.42c-.83-.83-.83-2.18,0-3.01.83-.83,2.18-.83,3.01,0l12.93,12.93c.83.83.83,2.18,0,3.01l-12.93,12.93c-.42.42-.96.63-1.51.63Z"/><g class="cls-3"><circle class="cls-2" cx="41.22" cy="30" r="18.28"/></g><g class="cls-3"><circle class="cls-2" cx="41.22" cy="30" r="11"/></g><g class="cls-3"><circle class="cls-2" cx="41.22" cy="30" r="11"/></g></g></g></svg>