<?xml version="1.0" encoding="UTF-8"?><svg xmlns="http://www.w3.org/2000/svg" viewBox="0 0 60 60"><defs><style>.cls-1{fill:#fff;}.cls-2{fill:#ff95b9;}.cls-2,.cls-3,.cls-4{opacity:.8;}.cls-5{isolation:isolate;}.cls-4{fill:#ff5786;mix-blend-mode:multiply;}.cls-6{opacity:.3;}.cls-7{fill:none;stroke:#fff;stroke-linecap:round;stroke-linejoin:round;stroke-width:2.43px;}</style></defs><g class="cls-5"><g id="Layer_3"><g class="cls-3"><rect class="cls-1" x="3.09" y=".5" width="42.67" height="52.31" rx="5.62" ry="5.62"/></g><g class="cls-6"><rect class="cls-1" x="12.58" y="11" width="38.21" height="46.83" rx="5.03" ry="5.03"/></g><path class="cls-1" d="m35.86,12.85H12.98c-.98,0-1.77-.79-1.77-1.77s.79-1.77,1.77-1.77h22.88c.98,0,1.77.79,1.77,1.77s-.79,1.77-1.77,1.77Z"/><path class="cls-1" d="m35.86,23.34H12.98c-.98,0-1.77-.79-1.77-1.77s.79-1.77,1.77-1.77h22.88c.98,0,1.77.79,1.77,1.77s-.79,1.77-1.77,1.77Z"/><path class="cls-1" d="m35.86,33.83H12.98c-.98,0-1.77-.79-1.77-1.77s.79-1.77,1.77-1.77h22.88c.98,0,1.77.79,1.77,1.77s-.79,1.77-1.77,1.77Z"/><path class="cls-1" d="m35.86,44.33H12.98c-.98,0-1.77-.79-1.77-1.77s.79-1.77,1.77-1.77h22.88c.98,0,1.77.79,1.77,1.77s-.79,1.77-1.77,1.77Z"/><circle class="cls-2" cx="42.57" cy="45.16" r="14.34"/><circle class="cls-4" cx="42.57" cy="45.16" r="9.56"/><line class="cls-7" x1="42.6" y1="39.69" x2="42.6" y2="46.84"/><circle class="cls-1" cx="42.57" cy="50.99" r="1.47"/></g></g></svg>