<?xml version="1.0" encoding="UTF-8"?><svg id="Layer_3" xmlns="http://www.w3.org/2000/svg" viewBox="0 0 60 60"><defs><style>.cls-1{fill:#fff;}.cls-2{opacity:.97;}.cls-3{fill:#6e0ff5;}</style></defs><circle class="cls-3" cx="30" cy="30" r="29"/><g class="cls-2"><path class="cls-1" d="m45.88,40.35v2.21c0,3.45-2.79,6.24-6.24,6.24h-19.28c-3.45,0-6.24-2.8-6.24-6.24v-2.21c0-3.78,1.68-7.17,4.34-9.45,1.27-1.09,3.12-1.03,4.42.02,1.94,1.57,4.42,2.52,7.11,2.52s5.17-.94,7.11-2.51c1.3-1.05,3.16-1.11,4.42-.02,2.66,2.28,4.34,5.67,4.34,9.45Z"/><path class="cls-1" d="m39.27,20.24c0,2.62-1.09,4.99-2.84,6.67-1.66,1.61-3.94,2.6-6.44,2.6s-4.77-.99-6.43-2.6c-1.76-1.68-2.85-4.05-2.85-6.67,0-5.12,4.17-9.28,9.28-9.28s9.28,4.16,9.28,9.28Z"/></g></svg>