<?xml version="1.0" encoding="UTF-8"?><svg xmlns="http://www.w3.org/2000/svg" viewBox="0 0 60 60"><defs><style>.cls-1{isolation:isolate;}.cls-2{fill:#ff7ba7;}.cls-3{mix-blend-mode:multiply;opacity:.8;}.cls-4{fill:#6e0ff5;}</style></defs><g class="cls-1"><g id="Layer_3"><g class="cls-3"><path class="cls-2" d="m37.74,59.5h-17.34c-1.2,0-2.18-.98-2.18-2.18s.98-2.18,2.18-2.18h17.34c1.2,0,2.18.98,2.18,2.18s-.98,2.18-2.18,2.18Z"/></g><path class="cls-4" d="m52.97,42.02c0,3.97-3.19,7.2-7.2,7.2H12.35c-1.99,0-3.79-.82-5.07-2.13-1.31-1.28-2.13-3.08-2.13-5.07,0-2.85,1.63-5.29,4-6.46,1.63-.8,2.59-2.52,2.59-4.33,0-3.34,0-7.78,0-7.78,0-9.57,7.76-17.3,17.33-17.3,4.79,0,9.11,1.95,12.26,5.07,3.12,3.12,5.07,7.44,5.07,12.23,0,0,0,4.6,0,7.95,0,1.81,1.08,3.39,2.69,4.22.66.34,1.25.77,1.77,1.29,1.28,1.31,2.09,3.08,2.09,5.1Z"/><g class="cls-3"><circle class="cls-2" cx="40.76" cy="14.58" r="14.08"/></g><g class="cls-3"><circle class="cls-2" cx="40.76" cy="14.58" r="9.39"/></g></g></g></svg>