<?xml version="1.0" encoding="UTF-8"?><svg xmlns="http://www.w3.org/2000/svg" viewBox="0 0 60 60"><defs><style>.cls-1{fill:#fff;}.cls-2{fill:#ff95b9;}.cls-2,.cls-3,.cls-4{opacity:.8;}.cls-5{isolation:isolate;}.cls-4{fill:#ff5786;mix-blend-mode:multiply;}.cls-6{opacity:.3;}</style></defs><g class="cls-5"><g id="Layer_3"><g class="cls-3"><rect class="cls-1" x="2.99" y=".5" width="42.83" height="52.5" rx="5.64" ry="5.64"/></g><g class="cls-6"><rect class="cls-1" x="12.52" y="11.04" width="38.34" height="47" rx="5.05" ry="5.05"/></g><path class="cls-1" d="m35.88,12.89H12.92c-.98,0-1.78-.79-1.78-1.78s.79-1.78,1.78-1.78h22.96c.98,0,1.78.79,1.78,1.78s-.79,1.78-1.78,1.78Z"/><path class="cls-1" d="m35.88,23.42H12.92c-.98,0-1.78-.79-1.78-1.78s.79-1.78,1.78-1.78h22.96c.98,0,1.78.79,1.78,1.78s-.79,1.78-1.78,1.78Z"/><path class="cls-1" d="m35.88,33.95H12.92c-.98,0-1.78-.79-1.78-1.78s.79-1.78,1.78-1.78h22.96c.98,0,1.78.79,1.78,1.78s-.79,1.78-1.78,1.78Z"/><path class="cls-1" d="m35.88,44.49H12.92c-.98,0-1.78-.79-1.78-1.78s.79-1.78,1.78-1.78h22.96c.98,0,1.78.79,1.78,1.78s-.79,1.78-1.78,1.78Z"/><circle class="cls-2" cx="42.62" cy="45.11" r="14.39"/><circle class="cls-4" cx="42.62" cy="45.11" r="9.6"/><path class="cls-1" d="m40,49.99l-2.8,1.3c-.2.09-.4-.11-.32-.31l1.21-2.87c.08-.19.19-.36.34-.5l7.79-7.79c.56-.56,1.48-.56,2.04,0h0c.56.56.56,1.48,0,2.04l-7.81,7.81c-.13.13-.28.24-.45.31Z"/></g></g></svg>